<?xml version="1.0" encoding="UTF-8"?>
<svg xmlns="http://www.w3.org/2000/svg" width="702.36" height="455.06" viewBox="128.82 19.47 702.36 455.06">
  <!-- Created using SVG Map Generator: dojo.amcharts.com/svg-map-generator -->
  <style>
    .land { fill: #ffffff; stroke: #000000; stroke-width: 1; }
  </style>
  <g id="polygons">
    <path d="M514.88,358.71L514.88,358.71L514.88,358.71Z" class="land" id="TV" title="Tuvalu"/>
    <path d="M174.9,468.17L174.9,468.17L174.9,468.17Z" class="land" id="BV" title="Bouvet Island"/>
    <path d="M157.88,266.98L157.88,266.98L157.88,266.98Z" class="land" id="GI" title="Gibraltar"/>
    <path d="M259.7,364.64L259.7,364.64L259.7,364.64Z" class="land" id="GO" title="Glorioso Islands"/>
    <path d="M250.91,375.63L250.91,375.63L250.91,375.63Z" class="land" id="JU" title="Juan De Nova Island"/>
    <path d="M555.03,342.87L555.03,342.87L555.03,342.87Z" class="land" id="UM-DQ" title="Jarvis Island"/>
    <path d="M523.24,341.67L523.24,341.67L523.24,341.67Z" class="land" id="UM-FQ" title="Baker Island"/>
    <path d="M522.9,340.56L522.9,340.56L522.9,340.56Z" class="land" id="UM-HQ" title="Howland Island"/>
    <path d="M536.65,309.27L536.65,309.27L536.65,309.27Z" class="land" id="UM-JQ" title="Johnston Atoll"/>
    <path d="M521.43,285.23L521.43,285.23L521.43,285.23Z" class="land" id="UM-MQ" title="Midway Islands"/>
    <path d="M490.58,304.07L490.58,304.07L490.58,304.07Z" class="land" id="UM-WQ" title="Wake Island"/>
    <path d="M732.63,318.43L732.63,318.43L732.63,318.43Z" class="land" id="BQ" title="Bonair, Saint Eustachius and Saba"/>
    <path d="M176.38,225.85L174.68,225.88L176.38,225.85ZM176.38,225.85L175.14,225.64L177.43,220.95L178.11,222.71L178.6,220.45L179.93,219.44L182.12,219.85L181.24,224.22L179.71,224.68L179.8,227.81L179.47,226.66Z" class="land" id="NL" title="Netherlands"/>
    <path d="M228.72,386.58L225,386.15L222.45,384.85L221.78,382.69L218.82,380.65L217.06,377.08L220.47,377.42L222.23,375.27L223.84,374.53L224.13,373.43L227,372.74L231.93,374.89L232.02,378.24L231.49,379.55L232.05,381.34L230.82,384.36Z" class="land" id="ZW" title="Zimbabwe"/>
    <path d="M231.88,360.38L233.31,362.7L232.54,363.3L232.81,366.45L231.4,368.68L232.43,369.48L226.68,371.43L227,372.74L224.13,373.43L223.84,374.53L222.23,375.27L220.47,377.42L217.06,377.08L215.16,376.45L213.43,376.77L211.05,374.66L210.72,373.37L210.72,367.47L214.32,367.47L214.56,363.26L215.63,364.37L216.92,363.99L218.55,365.27L220.33,365.28L223.06,366.44L224.33,368.2L225.84,368.24L225.84,365.79L224.42,366.17L223.06,364.46L223.6,362.86L223.14,360.02L224.25,358.53L227.69,358L229.99,359.69Z" class="land" id="ZM" title="Zambia"/>
    <path d="M228.72,386.58L230.07,390.92L230,394.12L228.97,393.67L227.79,395.1L228.29,396.62L230.02,397.04L230.32,396.02L231.82,396.05L230.65,399.92L228.82,401.59L226.79,405.16L222.09,409.91L219.33,411.54L216.23,412.5L211.23,412.27L210.35,412.98L206.18,413.87L202.79,409.7L203.43,406.91L202.4,405.27L200.02,399.91L201.19,398.62L201.95,400.09L205.43,400.54L206.85,399.55L206.85,391.59L208.42,394.03L208.32,396.05L210.07,396.06L213.21,392.64L216.07,393.82L217.69,393.37L218.33,391.53L220.11,390.45L220.71,388.94L222.77,387.19L225,386.15ZM222.04,400.55L220.53,402.23L222.4,404.42L224.49,402.8L225.05,401.35L223.57,399.83Z" class="land" id="ZA" title="South Africa"/>
    <path d="M270.89,309.43L269.42,310.15L269.21,311.43L263.66,313.47L262.34,314.64L261.03,314.65L258.71,315.81L256.52,316.06L255.32,317.1L252.3,317.05L250.83,311.43L250.99,309.99L251.75,307.99L255.53,307.86L259.97,308.5L261.38,306.37L263.07,305.51L268.74,304.66Z" class="land" id="YE" title="Yemen"/>
    <path d="M531.21,368.39L531.21,368.39L531.21,368.39Z" class="land" id="WS" title="Samoa"/>
    <path d="M520.16,370.09L520.16,370.09L520.16,370.09Z" class="land" id="WF" title="Wallis and Futuna"/>
    <path d="M234.44,278.5L234.35,278.25L234.89,277.65ZM236.78,277.89L235.81,277.61L236.28,275.48L236.97,275.8Z" class="land" id="PS" title="Palestinian Territories"/>
    <path d="M490.74,371.1L490.74,371.1L490.74,371.1ZM492.03,373.65L492.03,373.65L492.03,373.65Z" class="land" id="VU" title="Vanuatu"/>
    <path d="M377.06,299.48L374.55,300.62L372.51,304.72L375.53,308.93L377.17,310.07L378.7,311.99L379.86,316.82L379.43,319.26L377.64,320.82L374.81,321.8L374.35,323.36L371.1,325.43L371.36,322.52L370.2,321.85L373.57,320.66L372.95,319.44L376.16,317.99L376.18,313.34L375.94,310.65L370.76,305.06L369.17,303.96L371.17,302.56L369.47,300.66L367.64,300.76L367.34,299.35L365.75,297.67L366.51,296.91L370.09,296.99L371.84,295.64L374.75,296.83L374.28,297.63L375.86,299.27Z" class="land" id="VN" title="Vietnam"/>
    <path d="M739.28,307.11L739.28,307.11L739.28,307.11Z" class="land" id="VI" title="US Virgin Islands"/>
    <path d="M740,305.75L740,305.75L740,305.75Z" class="land" id="VG" title="British Virgin Islands"/>
    <path d="M748.47,325.5L748.83,325.98L747.11,327.55L747.74,328.63L746.29,329.12L745.84,330.65L747.07,332.02L746.56,333.32L743.26,334.32L739.67,334.55L740.91,337.35L741.94,337.8L738.13,340.42L736.07,340.51L735.2,339.73L734.55,337.47L733.35,336.5L734.36,335.49L733.31,333.37L734.11,330.42L733.3,329.91L730.24,330.21L728.98,328.65L725.13,328.34L723.75,324.4L722.67,324.17L723.96,321.01L725.37,319.37L726.61,318.99L725.39,319.87L726.08,321.36L725.07,323.02L725.9,324.48L727.12,323.23L726.32,320.76L728.71,319.95L729.15,318.36L729.87,319.74L732.26,320.37L733.28,321.73L736.42,321.41L739.12,322.46L741.01,321.35L743.28,321.18L743.64,322.31L746.97,323.91L745.98,325.77Z" class="land" id="VE" title="Venezuela"/>
    <path d="M746.23,316.42L746.23,316.42L746.23,316.42Z" class="land" id="VC" title="Saint Vincent and the Grenadines"/>
    <path d="M192.26,252.68L192.26,252.68L192.26,252.68Z" class="land" id="VA" title="Vatican City"/>
    <path d="M305.44,251.77L303.96,253.53L306.33,254.65L307.07,253.94L309.63,255.55L306.88,257.16L305.46,256.94L304.46,254.94L301,257.08L300.63,258.71L298.48,259.45L299.94,260.15L300.31,262.44L299.27,264.55L296.88,264.12L296.98,262.5L295.12,261.94L289.39,257.9L287.94,254.76L284.44,253.98L283.99,251.65L281.53,250.38L278.39,252.79L278.49,254.33L276.48,254.17L276.48,244.43L281.47,242.89L286.21,246.07L288.11,248.49L293.75,247.89L295.49,250.12L295.89,252.41L296.83,252.43L297.44,254.64L299.61,254.5L300.3,255.88L301.8,254.06Z" class="land" id="UZ" title="Uzbekistan"/>
    <path d="M543.2,194.65L544.25,196.48L541.26,196.11ZM532.9,181.21L534.89,180.96L536.16,183.57ZM591.82,151.72L591.82,194.97L595.33,195.82L598.41,199.1L600.37,199.38L602.51,196.94L605.71,201.06L609.49,207.99L613.05,211.15L611.99,214.95L611.32,211.67L609.53,210.21L607.66,207.11L606.39,206.64L605.24,202.88L602.84,202.72L601.76,201.53L600.37,202.76L596.94,199.62L593.34,197.19L588.06,195.77L586.4,196.09L582.35,194.28L580.46,192.19L577.61,192.8L577.9,195.49L575.51,196.14L572.55,199.03L571.05,199.24L571.86,193.24L571.03,193.19L566.5,198.58L567.98,200.39L566.2,203.07L561.88,206.09L561.89,206.88L558.14,209.24L558.4,210.08L549.53,214.33L550.9,211.73L554.48,209.67L559.7,205.1L559.86,202.11L557.96,200.51L556.84,201.93L554.37,199.76L551.67,201.4L551.53,197.72L550.73,195.45L547.51,196.89L544.71,194.03L545.77,192.64L544.3,191.8L543.31,188.97L546.54,183.05L548.57,183.77L553.56,180.43L553.27,177.05L551.67,175.98L549.64,177.97L547.89,177.01L543.19,177.04L539.42,172.09L546.03,167.81L547.77,167.92L547.92,170.08L551.56,170.22L554.62,168.46L551.48,167.1L551.27,165.38L547.87,164.65L547.09,162.58L542.73,158.35L543.06,155.91L546.75,155.63L548.95,153.18L551.43,147.87L553.14,148.03L556.4,144.69L558.94,144.88L561.29,142.06L566.3,145.14L570.09,145.09L570.65,147.18L575.83,146.9L578.85,148.53L583.7,149.72L587.53,149.1ZM563.62,304.63L562.71,303.12L563.13,302.03L565.12,303.58ZM724.3,255.04L724.3,255.04L724.3,255.04ZM720.05,244.41L726.22,244.4L728.59,241.92L729.14,239.67L730.62,237.53L733.4,238.61L733.44,242.49L734.72,243.95L734.76,244.73L728.81,247.76L727.14,251.56L728.38,253.39L723.65,254.32L720.98,256L721.5,256.72L720.59,259.09L718.73,259.82L719.42,261.28L718.21,262.64L716.98,261.31L717.04,264.1L717.76,265.79L716.63,267.3L717.99,268.21L712.57,272.39L711.22,274.1L708.17,276.45L706.88,279.26L707.4,281.68L708.8,284.58L708.56,285.25L709.74,288.76L709.11,291.42L707.69,291.45L704.32,285.98L704.69,283.69L701.99,280.99L699.53,281.93L697.71,280.12L694.75,280.57L692.59,280.29L689.67,280.91L691.27,281.41L690.28,283.04L687.98,282.8L686.81,281.59L686.1,282.21L683.33,281.73L681.02,282.62L679.15,284.24L676.63,285.33L675.86,287.89L676.65,290.07L672.85,289.02L672.09,286.63L669.86,283.29L668.34,281.72L666.74,281.51L664.83,283.44L662.42,281.94L661.62,279.91L658.65,277.23L655.24,277.21L655.24,278.23L649.77,278.24L642.43,275.54L642.65,275.07L638,275.49L637.34,273.73L635.33,272.05L631.51,270.99L631.22,269.56L628.81,266.58L627.67,262.92L625.28,260.28L623.99,256.3L624.57,254.01L623.66,250.29L624.42,247.96L624.84,242.83L624.57,239.57L623.48,234.9L628.11,235.95L627.05,233.08L653.77,230.62L680.49,233.09L683.3,234.46L684.68,234.2L687.54,235.82L691.53,236L693.61,235.1L700.38,239.13L700.99,240.38L704.88,243.46L705.68,248.28L703.74,252.48L705.1,253.26L707.34,251.87L711.68,250.32L711.42,248.56L715.97,248.12L719.14,244.69ZM548.35,214.24L546.19,216.17L546.31,214.58ZM611.21,212.52L609.6,213.42L609.96,211.34ZM606.2,209.58L606.9,209.65L609.28,213.47L607.72,214.01ZM606.59,207.24L606.59,207.24L606.59,207.24ZM603.49,206L604.16,208.25L601.91,206.12ZM568.81,204.3L569.75,205.63L566.02,207.54L566.13,204.97ZM602.01,202.76L603.42,203.47L603.26,205.43L600.5,203.3ZM604.05,203.06L605.44,205.06L604.52,207.05Z" class="land" id="US" title="United States"/>
    <path d="M761.33,411.5L760.52,412.99L758.36,414.29L756.01,414.23L752.7,413.22L751.6,411.9L751.98,408.57L753.13,403.4L754.63,403.22L756.48,405.38L757.1,404.94L760.57,407.62L761.8,409.18Z" class="land" id="UY" title="Uruguay"/>
    <path d="M242.12,238.59L237.5,239.91L235.61,241.13L237.01,244.09L233.8,246.08L233.11,244.15L231.08,243.31L233.32,241.8L230.17,240.93L230.05,239.67L227.77,240.11L225.66,243.7L222.77,243.18L224.58,240.18L226,239.33L224.68,236.32L221.49,234.6L219.69,235.23L216.36,236.8L212.45,236.14L211.01,234.81L211.8,232.85L212.01,231.47L214.83,227.52L213.86,225.44L215.33,224.35L218.35,224.21L220.95,225.15L227.26,225.2L229.64,223.62L233.46,222.85L234.74,224.63L234.51,226.08L236.51,226.91L236.7,228.45L238.43,229.24L240.59,228.84L245.15,231.37L245.5,235.29L245.07,236.43L242.26,237.25Z" class="land" id="UA" title="Ukraine"/>
    <path d="M233.78,344.04L227.22,344.16L225.41,344.78L226.12,340.51L228.66,338.14L227.64,337.35L227.85,335.34L228.46,334.77L230.29,335.27L232.98,334.83L233.92,333.93L234.73,334.95L235.83,338.11L235.49,339.72L233.86,341.76Z" class="land" id="UG" title="Uganda"/>
    <path d="M233.78,344.04L241.02,347.99L241.32,349.21L244.07,351.19L243.29,353.49L244.56,355.44L244.23,358.49L245.16,361.37L246.47,362.45L242.66,364.32L238.84,364.92L235.83,364.65L234.59,361.01L231.88,360.38L229.99,359.69L227.69,358L225.67,354.93L225.08,350.71L225.69,350.73L227.76,348.44L227.3,346.74L227.81,345.12L227.22,344.16Z" class="land" id="TZ" title="Tanzania"/>
    <path d="M402.27,297.16L401.45,297.71L400.63,294.87L402.34,292.06L404.05,292.19Z" class="land" id="TW" title="Taiwan"/>
    <path d="M248.5,253.67L250.97,253.55L252.23,254.73L252.91,257.37L254.8,258.29L254.89,258.43L253.36,259.11L254.15,261.65L253.72,262.75L254.79,264.62L250.94,264.06L250.14,264.7L246.94,264.73L244.33,265.73L242.08,265.2L239.11,265.44L237.63,267.57L237.93,265.18L236.94,265.94L235.13,265.48L233.38,266.93L231.64,267.28L228.85,265.44L227.48,265.29L227.17,266.63L225.63,266.99L222.62,264.89L221.11,264.92L220.88,262.58L219.82,262.04L220.46,260.33L218.71,258.89L219.92,256.53L222.92,256.52L225,255.49L224.92,254.42L228.66,254.73L230.69,253.12L232.77,252.37L237.94,253.24L238.82,254.33L242.44,255.2L246.09,255.1ZM222.39,252.5L223.87,255.07L221.4,255.07L220.93,255.8L218.57,255.7L219.7,253.97L219.12,253.16L221,252.21Z" class="land" id="TR" title="Türkiye"/>
    <path d="M190.46,273.99L190.46,275.76L187.77,277.93L187.96,279.46L186.62,280.71L185.7,276.54L183.22,273.87L182.74,271.9L184.44,269.26L184.12,266.06L184.79,265.11L186.94,264.14L189.73,265.27L188.56,266.59L189.71,269.18L187.67,271.6L187.85,272.44Z" class="land" id="TN" title="Tunisia"/>
    <path d="M746.54,322.39L746.54,322.39L746.54,322.39Z" class="land" id="TT" title="Trinidad and Tobago"/>
    <path d="M525.74,384.01L525.74,384.01L525.74,384.01Z" class="land" id="TO" title="Tonga"/>
    <path d="M410.13,360.58L409.84,359.47L410.34,358.89L413.13,358.52L413.7,359.02Z" class="land" id="TL" title="Timor-Leste"/>
    <path d="M296.88,264.12L295.41,263.58L293.58,264.64L292.99,266.55L290.28,267.8L289.31,269.19L286.7,268.28L286.43,265.83L284.92,265.84L282.79,263.7L277.38,261.91L274.74,262.76L272.49,264.13L272.4,260.18L270.96,258.97L271.5,257.65L270.21,256.54L271,255.45L274.03,255.28L272.36,252.18L269.74,252.99L272.89,251.54L275.65,254.33L276.48,254.17L278.49,254.33L278.39,252.79L281.53,250.38L283.99,251.65L284.44,253.98L287.94,254.76L289.39,257.9L295.12,261.94L296.98,262.5Z" class="land" id="TM" title="Turkmenistan"/>
    <path d="M530.93,358.76L530.93,358.76L530.93,358.76Z" class="land" id="TK" title="Tokelau"/>
    <path d="M305.46,256.94L303.54,257.03L302.83,258.62L306.32,258.56L307.1,259.37L310.63,258.93L310.96,261.03L312.78,261.27L313.07,264.4L310.34,263.82L307.09,265.7L306.61,262.69L305.31,261.4L304.09,263.35L299.87,265.08L299.27,264.55L300.31,262.44L299.94,260.15L298.48,259.45L300.63,258.71L301,257.08L304.46,254.94Z" class="land" id="TJ" title="Tajikistan"/>
    <path d="M361.87,301.95L364.12,304.7L363.39,307.54L365.7,306.27L366.89,306.91L368.15,305.83L369.28,306.04L370.95,308.11L370.83,309.43L372.51,311.34L371.66,314.05L367.83,314.08L366.12,315.66L367.31,319.3L364.97,317.35L363.31,317.3L363.5,315.88L361.67,316.03L361.61,318.38L360.02,322.03L360.46,324.2L361.1,324L362.77,328.18L364.53,328.79L365.7,330L364.07,330.88L363.67,330L361.87,329.61L358.89,325.9L358.23,325.75L359.13,322.28L360.89,319.15L359.97,315.31L358.24,313.12L359.1,310.12L356.77,305.69L357.98,303.09L359.54,303.07Z" class="land" id="TH" title="Thailand"/>
    <path d="M169.95,320.7L169.71,321.95L170.78,322.66L171.3,324.52L171.34,330.05L170.5,330.3L169.22,328.82L169.43,327.84L168.71,323.65L168.9,322.19L168.07,320.46Z" class="land" id="TG" title="Togo"/>
    <path d="M212.42,320.85L211.71,320.7L207.55,324.37L205.24,324.59L203.9,326.51L200.67,327.45L198.15,327.5L197.44,325.48L195.24,323.26L195.75,322.7L198.26,322.73L197.47,321.38L197.37,319.02L196.28,316.77L195.41,316.58L194.52,315.33L194.22,313.99L196,311.24L198.14,308.91L198.64,302.8L199.05,301.98L197.57,299.45L197.18,296.37L199.12,295.43L214.59,303.64L214.59,311.18L212.9,311.34L211.2,316.08Z" class="land" id="TD" title="Chad"/>
    <path d="M725.95,298.95L725.95,298.95L725.95,298.95Z" class="land" id="TC" title="Turks and Caicos Islands"/>
    <path d="M250.14,264.7L248.32,266.13L247.89,270.29L243.2,273.55L239.42,275.98L237.43,275.02L237.59,273.41L238.97,271.58L237.79,270.62L237.63,267.57L239.11,265.44L242.08,265.2L244.33,265.73L246.94,264.73Z" class="land" id="SY" title="Syria"/>
    <path d="M275.64,351.19L275.64,351.19L275.64,351.19Z" class="land" id="SC" title="Seychelles"/>
    <path d="M742.46,306.55L742.68,306.55L742.46,306.55Z" class="land" id="SX" title="Sint Maarten"/>
    <path d="M230,394.12L230.32,396.02L230.02,397.04L228.29,396.62L227.79,395.1L228.97,393.67Z" class="land" id="SZ" title="Eswatini"/>
    <path d="M214.93,171.4L209.92,173.26L209.09,176.01L209.72,177.95L208.36,180.22L202.82,184.69L201.34,189.89L201.57,193.4L202.94,193.84L204.9,197.08L200.41,202.06L200.17,207.01L199.15,209.99L196.8,210.2L195.94,212.38L193.97,213L192.56,210.28L193.12,208.61L190.35,203.22L190.23,199.82L192.36,195.73L191.98,192.2L193.12,190.8L191.72,189.3L191.41,182.72L192.7,179.9L195.21,179.57L194.61,177.04L196.21,173.75L196.33,169.86L199.93,165.35L199.4,163.5L201.71,160.03L202.86,160.75L203.75,157.63L206.83,158.71L208.09,155.09L212.27,158.53L213.93,160.8L213.6,163.37L214.6,166.56ZM205.1,204.25L204.37,206.39L203.28,205.26Z" class="land" id="SE" title="Sweden"/>
    <path d="M200.15,240.26L198.45,241.1L197.87,243.13L194.47,243L194.74,242.8L194.7,240.2L196.26,240.49L199.33,239.23Z" class="land" id="SI" title="Slovenia"/>
    <path d="M211.8,232.85L211.01,234.81L207.84,234.45L206.69,235.6L202.56,236.65L201.37,235.97L201,234.24L204.63,231.55L206.51,232.5L210.06,231.84Z" class="land" id="SK" title="Slovakia"/>
    <path d="M759.81,331.72L759.23,332.39L760.13,335.15L758.92,337.6L758.16,337.08L755.31,338.34L752.27,334.02L753.93,331.35L754.36,330.49L756.36,330.87L760,330.84Z" class="land" id="SR" title="Suriname"/>
    <path d="M181.09,341.87L181.09,341.87L181.09,341.87Z" class="land" id="ST" title="Sao Tome and Principe"/>
    <path d="M207.36,241.35L209.57,244.77L212.12,246.49L211.83,248.59L212.65,249.3L211.42,251.6L209.91,251.77L210.28,250.67L208.93,249.55L207.56,250.25L205.33,248.38L205.9,247.92L204.97,244.77L204.77,241.85Z" class="land" id="RS" title="Serbia"/>
    <path d="M755.72,239.3L755.72,239.3L755.72,239.3Z" class="land" id="PM" title="Saint Pierre and Miquelon"/>
    <path d="M248.54,345.38L247.47,343.78L247.44,336.65L249.22,334.4L253.37,332.51L255.13,332.59L261.01,326.58L259.07,326.58L253.36,324.65L250.72,321.44L251.23,320.69L251.86,319.7L254.06,321.81L256.83,321.01L258.28,321.19L259.9,320.35L262.8,320.19L267.35,319.05L266.51,323.78L263.66,328.54L263.08,330.13L261,333.39L257.28,337.31L253.96,339.41L249.41,343.98Z" class="land" id="SO" title="Somalia"/>
    <path d="M192.35,247.39L192.35,247.39L192.35,247.39Z" class="land" id="SM" title="San Marino"/>
    <path d="M691.71,313.91L694.7,315.94L693.35,316.37L690.29,315.27Z" class="land" id="SV" title="El Salvador"/>
    <path d="M148.31,325.63L145.94,328.71L143.29,326.85L142.49,324.52L144.02,322.93L146.53,322.7Z" class="land" id="SL" title="Sierra Leone"/>
    <path d="M481.01,362.3L481.01,362.3L481.01,362.3ZM477.21,360.11L478.91,360.73L477.41,361.13ZM479.15,358.24L479.15,358.24L479.15,358.24ZM477.46,358.67L477.46,358.67L477.46,358.67Z" class="land" id="SB" title="Solomon Islands"/>
    <path d="M157.19,373.45L157.19,373.45L157.19,373.45Z" class="land" id="SH" title="Saint Helena"/>
    <path d="M792.79,466.91L794.3,467.52L794.76,469.57Z" class="land" id="GS" title="South Georgia and South Sandwich Islands"/>
    <path d="M369.31,339.52L369.31,339.52L369.31,339.52Z" class="land" id="SG" title="Singapore"/>
    <path d="M144.45,313.13L144.89,315.48L146.17,316.85L146.17,317.92L144.43,318.07L141.65,317.38L138.81,317.37L135.88,318.01L135.78,316.61L137.57,316.42L138.2,315.57L136.17,315.57L134.99,313.47L136.22,311.06L136.93,309.64L140.54,309.57L142.26,310.62Z" class="land" id="SN" title="Senegal"/>
    <path d="M234.12,323.71L234.15,325.44L232.06,326.67L233.32,327.22L235.34,329.19L236.42,331.46L233.92,333.93L232.98,334.83L230.29,335.27L228.46,334.77L227.85,335.34L225.61,333.22L222.74,333.68L221.21,332.2L219.2,329.23L217.3,327.87L214.91,325.27L215.66,324.84L216.69,322.08L218.1,321.83L219.56,323.59L222.14,323.44L224,323.98L226.24,322.11L228.6,323.05L230.88,320.58L230.24,318.7L232.42,318.29L232.37,320.98L233.76,322.27Z" class="land" id="SS" title="South Sudan"/>
    <path d="M239.52,298.46L240.68,305.02L242.89,306.68L240.57,308.6L239.79,308.6L238.66,312.48L238.85,314.23L238.05,317.28L236.12,319.08L235.77,320.96L234.5,321.62L234.12,323.71L233.76,322.27L232.37,320.98L232.42,318.29L230.24,318.7L230.88,320.58L228.6,323.05L226.24,322.11L224,323.98L222.14,323.44L219.56,323.59L218.1,321.83L216.69,322.08L215.66,324.84L214.91,325.27L213.73,324.98L213.94,323L212.42,320.85L211.2,316.08L212.9,311.34L214.59,311.18L214.59,303.64L214.59,302.61L216.52,302.6L216.52,298.47Z" class="land" id="SD" title="Sudan"/>
    <path d="M258.21,283.23L261.91,284.45L262.8,286.45L264.89,288.2L264.98,289.75L266.48,292.58L267.37,292.97L267.95,293.65L269.86,296.5L274.95,296.99L275.83,298.45L274.55,302.61L268.74,304.66L263.07,305.51L261.38,306.37L259.97,308.5L255.53,307.86L251.75,307.99L250.99,309.99L248.96,306.93L247.04,303.1L244.83,301.53L243.82,299.89L243.83,297.64L242.61,294.86L240.82,293.64L240.06,291.51L236.25,285.57L235.16,285.32L235.81,282.66L237.87,283.02L239.3,281.52L241.67,280.1L239.69,277.86L243.92,276.42L246.29,276.84L249.59,278.79L254.7,283.01Z" class="land" id="SA" title="Saudi Arabia"/>
    <path d="M151.41,286.39L151.41,287.2L151.41,290L144.96,290L144.95,295.38L143,296.36L143.02,299.84L135.39,299.85L135.23,300.94L135.45,298.67L138.05,294.1L139.11,293.09L140.32,289.44L141.94,288.4L142.71,286.4Z" class="land" id="EH" title="Western Sahara"/>
    <path d="M227.22,344.16L227.81,345.12L227.3,346.74L224.33,347.36L224.06,346.74L225.41,344.78Z" class="land" id="RW" title="Rwanda"/>
    <path d="M518.56,140.49L520.6,143.57L516.38,144.01L516.38,140.73ZM514.18,144.99L514.24,142.59L516.38,140.73L516.38,144.01ZM285.13,150.13L283.45,151.23L281.31,148.25L282.34,147.1ZM495.49,152.11L492.76,150.68L495.83,150.43ZM265.43,154.28L262.34,156.72L261.59,155.07L263.42,152.5ZM516.77,155.61L525.39,162.22L527.12,165.11L532.25,165.96L535.35,169.51L534.44,172.26L531.45,173.18L529.91,178.31L524.4,175.09L523.94,172.96L519.65,172.9L518.55,170.78L516.38,174.83L516.38,155.38ZM484.73,201.43L484.97,199.9L486.62,200.38ZM209.28,213.28L212.37,214.72L212.24,216.33L206.12,215.99L206.84,214.44ZM444.35,216.2L445.24,219.8L445.11,223.67L447.27,232.14L445.02,232.48L443.96,236.74L445.36,240.09L444,239.69L443.28,241.41L442.55,240.4L443.23,235.95L442.62,233.8L443.15,231.38L443.28,226.36L442.34,224.76L442.54,219.66L443.9,219.31ZM455.64,243.55L455.64,243.55L455.64,243.55ZM354.92,59.42L357.44,62.83L356.17,69.37L349.78,71.98L345.24,68.03L348.6,62.91L348.22,60.5L353.51,56.84ZM274.05,58.92L279.8,62.9L275.97,64.76L272.79,62.64ZM288.46,62.39L286.3,67.33L282.92,66.13L283.47,62.61ZM357.14,70.32L361.75,74.55L360.55,84.38L356.91,84.46L351.29,81.41L348.23,77.58L351.94,71.01ZM367.22,80.11L371.59,84.54L371.91,87.67L368.83,89.99L363.97,90.62L362.19,85.92L364.71,79.11ZM421,251.63L420.69,251.02L422.11,248.65L421.76,244.66L423.49,243.75L425.34,244.33L427.14,240.97L427.73,237.99L428.86,236.8L428.49,235.05L424.62,236.65L421.61,236.87L421.22,234.99L418.76,232.11L415.8,231.38L413.72,226.74L412.53,222.68L411.25,220.62L407.3,218.99L401.68,220.21L400.51,221.44L401.77,223.63L400.45,225.19L398.76,228.94L398.89,229.89L396.21,231.54L393.91,230.61L389.29,229.26L386.89,231.24L382.58,232.57L378.3,232.11L377.01,230.31L372.05,228.65L368.66,229.67L366.06,228.31L365.72,225.95L359.41,223.72L357.66,225.97L357.97,229.85L356.24,230.89L351.22,230.01L350.52,228.4L345.78,227.98L338.06,232.58L337.11,232.81L335.74,231.26L333.03,231.09L329.44,227.06L325.78,227.84L324.65,226.18L322.92,227.74L318.51,219.54L315.73,216.48L312.22,218.66L309.96,218.82L309.24,217.15L305.72,216.81L305.03,213.14L301.63,212.86L299.88,214.31L294.86,215.44L287.99,217.68L286.16,218.75L288.08,220.94L286.29,220.85L286.08,223.05L284.39,224.01L286.9,225.68L286.95,227.47L283.9,228.32L281.09,226.85L277.48,226.98L276.13,228.26L273.47,227.72L271.38,225.55L266.46,224.79L262.61,228.27L261.89,230.6L259.75,229.26L258.73,231.98L258.46,234.79L259.3,236.13L261.26,236.72L263.43,240.72L260.13,242.76L258.64,245.99L259.56,246.61L260.01,249.7L262.16,252.82L260.78,254.46L258.01,252.7L256.65,251.18L252.89,250.46L250.26,249.2L246.83,248.38L245.53,248.68L243.09,246.35L240.57,245.14L239.66,243.62L241.03,243.38L242.06,241.39L241.65,239.93L244.21,238.55L242.12,238.59L242.26,237.25L245.07,236.43L245.5,235.29L245.15,231.37L240.59,228.84L238.43,229.24L236.7,228.45L236.51,226.91L234.51,226.08L234.74,224.63L233.46,222.85L229.64,223.62L228.98,220.13L231.46,219.67L228.4,215.36L227.99,212.24L226.68,211.3L222.65,210.27L221.97,206.13L221.11,205.37L221.89,204.23L221.26,200.95L222.39,198.12L224.2,196.8L223.62,193.76L221.97,194.05L228.72,185.8L228.52,183.08L226.34,181L227.21,179.54L225.47,175.28L226.05,170.04L224.47,165.77L226.12,162.88L223.27,158.02L224.23,155.17L227.91,150.98L230.07,150.03L231.92,151.16L230.83,152.67L237.56,154.25L247.45,162.04L247.88,166.48L246.59,168.33L242.48,170.17L236.9,168.58L231,166.04L235.49,171.12L234.76,173.32L235.65,177.14L240.63,180.45L241.62,178.21L238.86,175.84L239.55,174.35L245.11,177.06L246.12,175.15L245.22,172.37L249.85,167.98L253.5,169.35L254.26,167.24L252.89,164.36L253.75,160.59L253.41,157.7L256.97,158.06L258.52,161.35L255.13,163.24L257.15,166.35L260.49,165.4L260.81,162.7L266.54,158.75L269.85,157.47L272.27,155.31L272.59,159.39L276.61,157.17L278.7,157.67L282.17,155.27L284.06,158.37L286.07,155.36L284.59,152.06L286.23,150.6L290.77,151.59L300.71,158.75L301.94,155.56L297.93,151.48L298.35,145.51L297.64,142.28L300.26,139.84L301.75,133.6L302.92,132.11L306.51,132.01L309.05,133.46L307.3,140.67L308.89,145.02L308.5,154.85L310.47,157.56L309.7,161.26L305.42,167.84L303.37,166.39L302.05,167.69L307.31,169.3L310.94,165.65L312.83,161.77L312.46,156.62L316.1,155.41L317.61,158.12L318.41,155.81L315.21,154.01L310.91,154.21L310.49,151.41L311.95,146.01L309.58,141.29L310.71,138.84L314.71,136L315.27,138.43L320.01,135.37L321.83,135.46L325.87,139.45L328.73,139.43L327.17,136.37L324.55,134.77L324.08,127.61L329.81,126.94L335.7,125.36L335.82,119.73L337.79,116.41L342.65,112.88L349.16,110.82L351.14,108.43L355.6,110.2L362.26,105.76L363.55,101.45L369.4,94.9L373.04,97.08L371.14,99.85L376.01,101.99L377.16,103.76L383.14,103.72L386.05,106.55L388.47,110.8L387.97,115.17L384.59,119.31L380.67,122.34L377.5,126.75L375.7,127.25L374.17,130.51L380.7,128.27L381.48,124.5L388.83,127.5L391.3,126.69L397.33,127.47L397.29,129.79L399.84,131.57L406.44,131.73L406.72,127.86L408.81,126.33L411.19,127.94L415.3,128.2L417.52,130.17L418.53,135.88L416.49,137.32L419.21,143.26L421.9,145.49L424.62,138.52L427.6,141.7L431.05,140.16L433.82,141.81L438.42,139.73L438.24,134.72L443,133.27L449.62,134.43L451.76,135.96L457.39,136.84L459.51,140.84L463.21,144.95L469.76,143.4L473.9,143.73L476.44,145.2L477.71,148L477.37,150.97L480.67,153.22L482.29,151.73L485.74,151.34L490.89,152.56L492.45,151.22L496.28,156.44L498.96,155.04L497.98,149.15L503.38,150.76L508.85,150.55L514.16,153.18L516.38,155.38L516.38,174.83L511.42,177.66L513.77,179.79L515.55,185.29L514.68,186.83L511.26,185.71L502.56,190.33L501.67,191.97L497.01,195.88L495.54,193.82L491.17,194.95L489.98,194.25L487.53,195.76L485.01,195.98L481.49,203.37L483.91,204.79L483.12,207.92L484.15,209.95L481.73,210.45L481.04,212.96L481.77,215.01L477.84,216.88L477.5,219.53L475,221.17L474.03,224.53L471.4,227.14L470.15,220.74L469.1,213L469.93,208.33L472.76,204.39L475.83,202.1L477.4,199.47L481.57,194.51L484.87,192.54L485.93,185.26L484.14,185.87L483.52,189.01L479.18,193.19L477.47,191.04L478.31,189.01L475.91,188.48L472.8,188.98L467.97,194.68L466.66,196.78L468.35,198.59L463.93,200.18L461.23,197.97L457.66,197.03L456.81,198.11L453.55,198.94L451.47,198.33L445.18,198.56L442.93,199.95L436.42,207.38L434.54,210.28L429.85,214.37L430.98,215.57L432.81,215.45L432.59,217.73L433.84,219.02L436.42,218.34L436.49,216.45L438.44,216.59L441.72,220.17L441.88,223.37L440.34,226.33L440.01,231.3L439.34,234.46L436.28,238.68L434.53,242.16L431.03,246.12L429.59,248.4L425.78,250.6L423.14,249.12ZM299.28,107.74L286.89,115L284.69,118.89L281.43,121.07L281.25,123.72L278.39,128.99L274.6,128.39L272.2,126.25L273.9,124.91L278.63,114.48L282.1,110.81L290.01,107.75L295.6,104.64L298.84,101.3L301.48,104.98ZM439.1,111.01L440.84,112.03L443.77,110.42L449.17,112.92L446.79,117.05L442.85,117.45L437.27,119.92L433.22,115.61L434.18,110.37L436.71,108.05ZM452.15,114.58L458.55,115.73L459.6,117.8L454.66,118.68L450.9,115.89ZM387.53,121.78L386.36,123.95L384.16,122.69L385.01,120.71ZM443.24,125.35L445.48,127.61L445.19,129.97L440.29,128.41L441.11,125.56ZM275.21,129.38L277.36,130.1L275.28,134.92L275.17,138.27L278.74,146.39L272.12,145.07L271.43,140.71L268.43,141.01L267.98,137.42L269.99,135.97L272.18,129.48Z" class="land" id="RU" title="Russia"/>
    <path d="M222.77,243.18L225.66,243.7L224.39,245.08L223.5,247.82L220.6,246.68L217.52,248.01L213.13,247.47L212.12,246.49L209.57,244.77L207.36,241.35L209.12,240.81L211.32,236.77L212.45,236.14L216.36,236.8L219.69,235.23L222.5,238.91Z" class="land" id="RO" title="Romania"/>
    <path d="M276.13,384.37L276.13,384.37L276.13,384.37Z" class="land" id="RE" title="Reunion"/>
    <path d="M267.37,292.97L266.48,292.58L266.4,291.18L267.36,289.66L268.02,291.81Z" class="land" id="QA" title="Qatar"/>
    <path d="M575.72,376.87L575.72,376.87L575.72,376.87Z" class="land" id="PF" title="French Polynesia"/>
    <path d="M752.06,381.93L752.7,383.66L752.4,385.84L756.53,386.38L757.47,389.92L759.64,390.04L758.92,393.3L758.65,395.36L756.79,397.28L754.09,397.4L751.17,396.66L753.17,392.93L748.71,390.14L746.5,389.43L743.37,386.23L744.1,382.76L745.1,380.87L750.26,380.13Z" class="land" id="PY" title="Paraguay"/>
    <path d="M153.88,264.53L151.57,264.67L150.96,261.26L149.88,260.72L151.46,254.93L151.22,252.57L155.4,252.57L156.19,253.63L154.8,254.98L155.03,256.68L153.8,258.71L154.57,260.28Z" class="land" id="PT" title="Portugal"/>
    <path d="M420.69,251.02L421,251.63L419.19,253.17L419.1,255.37L414.96,258.1L414.63,259.53L416.52,260.99L414.19,261.78L413.16,263.06L410.86,263.19L409.4,262.21L410.69,258.74L408.76,257.54L411.91,255.25L413.68,252.99L416.01,254L415.88,252.45L417.58,252.32L419.47,249.8Z" class="land" id="KP" title="North Korea"/>
    <path d="M736.65,305.79L736.95,306.75L734.58,306.71L734.66,305.68Z" class="land" id="PR" title="Puerto Rico"/>
    <path d="M206.12,215.99L212.24,216.33L213.63,217.71L214.33,221.83L213.07,223.13L213.86,225.44L214.83,227.52L212.01,231.47L211.8,232.85L210.06,231.84L206.51,232.5L204.63,231.55L204.11,230.45L201.38,228.94L200.47,229.79L199.17,228.23L196.85,227.48L196.48,222.27L195.53,221.15L195.78,218.39L195.69,217.67L199.51,216.55L200.23,215.67L203.65,214.72L204.32,216.08Z" class="land" id="PL" title="Poland"/>
    <path d="M464.09,351.31L464.09,351.31L464.09,351.31ZM469.88,355.06L468.69,355.13L467.6,353.67L468.02,352.83ZM462.06,350.42L463.01,350.5L462.5,352.48L459.18,354.26L457.68,354.29L455.15,352.84L460.2,352.61ZM440.9,359.81L440.89,347.15L447.67,349.5L450.16,351.44L450.33,352.7L454.1,354.34L452.78,355.13L452.92,356.41L454.73,357.83L455.61,359.68L458.11,361.57L457.88,362.23L454.04,361.68L450.68,357.77L447.73,356.78L445,358.23L445.52,359.5L444.13,360.22Z" class="land" id="PG" title="Papua New Guinea"/>
    <path d="M428.56,327.78L428.56,327.78L428.56,327.78Z" class="land" id="PW" title="Palau"/>
    <path d="M411.94,323.99L412.55,324.92L413.05,328.04L412.08,329.04L411.59,327.87L410.77,328.92L410.88,331.12L408.21,329.69L408.46,327.75L405.15,327.21L406.97,325.2L408.5,326.04L409.74,324.67ZM409.21,323.07L409.21,323.07L409.21,323.07ZM406.38,324.49L405.28,323.67L406.09,320.91L407.22,321.12ZM406.84,323.74L406.84,323.74L406.84,323.74ZM395.12,325.71L399.41,320.78L399.71,321.57L397.97,322.82L397.3,324.12ZM409.17,320.01L409.86,319.95L410.48,322.14L409.57,322.33ZM405.15,319.48L406.43,319.63L405.68,321.04L404.12,320.94ZM410.46,317.67L411.21,320.43L410.45,320.4L408.63,317.59ZM401.69,315.78L403.27,316.47L402.71,318.28L401.31,316.22ZM402.45,305.44L404.77,305.87L405.2,308.47L404.45,310.37L403.02,312.1L403.81,314.52L405.85,314.24L408.34,316.66L408.18,317.59L405.34,314.93L402.65,315.46L401.52,314.37L402.04,313.32L400.48,313.04L400,310.08L401.08,310.29L401.02,307.43L401.48,305.66Z" class="land" id="PH" title="Philippines"/>
    <path d="M729.23,350.3L727.61,350.18L723.57,352.02L723.09,354.63L721.42,356.76L723.41,359.57L722.95,360.39L724.56,360.58L724.94,361.55L726.76,361.47L727.93,360.52L727.92,363.53L729.97,363.41L731.7,366.48L730.95,368.82L731.32,369.85L730.28,372.66L731.05,374.75L730.11,376.5L728.35,378.21L726.2,376.07L719.29,372.28L716.99,369.72L717.2,368.49L715.19,364.82L714.39,364.08L712.21,358.83L709.6,354.99L707.53,353.61L708.11,353.26L707.33,350.47L709.19,348.66L708.87,350.61L710.52,350.72L711.6,351.76L713.95,347.87L716.24,347.06L718.38,345.06L718.94,342.3L719.87,342.49L722.07,344.51L723.06,346.51L724.53,346.8L727.39,346.39L729.02,347.42L727.74,349.42Z" class="land" id="PE" title="Peru"/>
    <path d="M616.41,390.79L616.41,390.79L616.41,390.79Z" class="land" id="PN" title="Pitcairn Islands"/>
    <path d="M714.89,325.29L715.21,326.51L713.88,328.08L712.87,326.45L713.46,325.83L710.9,324.61L708.93,326.42L709.67,327.22L708.18,328.1L706.47,326.3L704.25,326.44L704.13,323.74L704.86,323.49L705.47,324.56L707.2,325.05L710.63,323.45L713.52,324.15Z" class="land" id="PA" title="Panama"/>
    <path d="M318.69,268.57L316.36,270.37L314.65,270.92L311.27,270.56L311.33,273.85L313.92,276.07L312.33,277.36L312.57,278.9L310.15,281.37L309.22,283.38L307.22,285.73L305.03,286.24L304.39,285.59L302.58,288.25L303.91,288.97L305.63,293.41L301.15,293.69L300.06,294.56L299.1,294.65L296.7,290.9L293.27,291.74L287.33,291.7L287.88,289.46L290.39,288.55L289.56,285.64L287.4,283.9L285.89,281.54L289.05,282.54L292.19,282.57L296.21,281.59L296.64,279.17L300.15,277.15L302.21,276.85L302.64,274.37L304.16,273.56L303.35,272.33L305.64,271.98L305.47,270.85L306.74,269.31L305.9,267.27L308.68,265.38L312.39,264.91L314.9,265.81L315.7,267.82Z" class="land" id="PK" title="Pakistan"/>
    <path d="M277.28,292.17L278.89,294.42L281.51,295.01L283.88,298L281.31,301.76L280.13,302.1L280.03,304.62L277.79,305.5L277.05,306.79L275.52,307.01L274.72,308.64L270.89,309.43L268.74,304.66L274.55,302.61L275.83,298.45L274.95,296.99L276.13,292.41Z" class="land" id="OM" title="Oman"/>
    <path d="M503.07,429.91L505.36,429.24L505.32,431.1L502.3,435.09L502.69,436.78L499.83,437.43L498.39,441.66L496.43,444.08L493.91,444.24L492.56,443.08L490.72,443.09L490.72,441.27L493.88,437.29L496.38,435.97L499.47,432.99L499.91,431.25L502.15,427.97ZM503.36,414.3L505.4,415.04L507.29,419.22L507.6,417.97L508.85,420.8L511.23,421.65L513.55,420.92L512.45,424.5L511.37,424.35L508.61,429.74L507.31,430.77L506.01,429.94L507.03,428.23L506.73,426.53L504.65,425.42L505.93,423.61L506.57,421.19L506.29,419.1L503.07,414.94Z" class="land" id="NZ" title="New Zealand"/>
    <path d="M208.63,69.27L211.63,67.52L220.16,70.3L220.81,73.13L217.8,78.55L214.53,80.73L208.56,78.61L204.42,74.73L203.69,71.43ZM200.67,73.13L204.15,76.77L205.13,81.11L207.78,81.4L209.58,85.32L206.44,86.47L203.87,92.19L200.51,104.92L195.99,99.33L197.06,95.28L190.98,85.55L189.22,74.34L192.87,74.56L194.09,77.73ZM210,86.74L212.92,92.5L215.09,93.36L214.32,97L210.87,96.97L207.33,87.89Z" class="land" id="SJ" title="Svalbard and Jan Mayen"/>
    <path d="M491.16,343.1L491.16,343.1L491.16,343.1Z" class="land" id="NR" title="Nauru"/>
    <path d="M338.64,285.93L338.53,289.06L333.19,288.39L330.86,286.76L329.31,287.02L326.53,285.93L323.09,283.82L323.73,281.82L324.9,280.85L326.9,280.49L329.88,283.04L330.88,282.96L332.86,284.95L335.35,285.8Z" class="land" id="NP" title="Nepal"/>
    <path d="M227.91,150.98L224.23,155.17L224.57,151.61L222.15,149.41L219.51,150.24L218.01,155.34L216.45,157.46L214.34,156.33L211.55,156.79L210.03,153.82L208.09,155.09L206.83,158.71L203.75,157.63L202.86,160.75L201.71,160.03L199.4,163.5L199.93,165.35L196.33,169.86L196.21,173.75L194.61,177.04L195.21,179.57L192.7,179.9L191.41,182.72L191.72,189.3L193.12,190.8L191.98,192.2L192.36,195.73L190.23,199.82L186.81,200.16L184,203.12L181.75,203.57L179.24,201.73L179.51,198.62L178.13,199.1L178.35,193.92L177.73,189.35L178.91,186.87L182.29,185.65L181.76,184.15L183.87,183.58L184.45,181.67L186.98,180.23L190.16,175.57L191.72,174.32L193.55,167.88L196.74,163.13L196.83,161.55L199.28,159.53L203.22,154.44L203.59,152.7L212.08,147.62L212.78,149.19L215.9,143.96L218.05,144.84L221.58,143.42L224.5,144.79L228.06,148.2L225.46,149.9Z" class="land" id="NO" title="Norway"/>
    <path d="M536.11,379.71L536.11,379.71L536.11,379.71Z" class="land" id="NU" title="Niue"/>
    <path d="M703.71,312.76L702.92,316.1L703.02,317.9L702.33,320.1L702.77,320.85L698.7,320.57L694.98,316.92L695.62,316.78L696.79,315.22L698.62,315.05L700.17,313.24Z" class="land" id="NI" title="Nicaragua"/>
    <path d="M194.52,315.33L195.41,316.58L196.5,318.5L196.37,319.72L195.07,320.41L192.2,325.41L190.55,329.11L189.78,329.62L187.82,328.53L185.73,330.45L184.75,332.89L184.24,333.27L179.96,333.79L179.01,333.1L177.61,330.42L176.18,329.67L173.44,329.75L173.57,324.52L174.09,324.45L175.62,321.46L175.16,319.32L175.26,317.67L176.23,315.82L178.83,315L180.56,315.53L181.85,316.73L183.27,316.06L186.8,317.11L187.9,316.2L190.28,316.03L192.31,316.55Z" class="land" id="NG" title="Nigeria"/>
    <path d="M493.05,400.79L493.05,400.79L493.05,400.79Z" class="land" id="NF" title="Norfolk Island"/>
    <path d="M197.18,296.37L197.57,299.45L199.05,301.98L198.64,302.8L198.14,308.91L196,311.24L194.22,313.99L194.52,315.33L192.31,316.55L190.28,316.03L187.9,316.2L186.8,317.11L183.27,316.06L181.85,316.73L180.56,315.53L178.83,315L176.23,315.82L175.26,317.67L175.16,319.32L173.77,317.99L172.82,318.92L172.21,317.3L170.11,316.65L168.52,313.75L168.62,312.92L170.72,312.2L174.98,312.03L176.39,308.73L176.38,304.36L179.49,303.67L182.68,300.8L191.35,295.27L194.28,295.98L195.73,297.16Z" class="land" id="NE" title="Niger"/>
    <path d="M485.82,382.1L491.13,385.93L490.8,386.53L487.84,384.75Z" class="land" id="NC" title="New Caledonia"/>
    <path d="M213.43,376.77L215.16,376.45L217.06,377.08L213.82,378.43L213.27,377.56L208.77,378.15L208.77,385.74L206.85,385.74L206.85,391.59L206.85,399.55L205.43,400.54L201.95,400.09L201.19,398.62L200.02,399.91L197.88,397.21L196.25,390.37L196.3,387.21L194.22,383.49L192.3,379.39L190.98,377.51L190.92,375.98L193.54,375.41L195.16,376.26L203.79,376.28L204.62,377.03L209.63,377.51Z" class="land" id="NA" title="Namibia"/>
    <path d="M255.6,367.42L255.6,367.42L255.6,367.42Z" class="land" id="YT" title="Mayotte"/>
    <path d="M365.7,330L368.24,332.71L368.29,336.42L369.93,339.23L366.91,338.51L364.14,336.52L363.02,334.42L361.87,329.61L363.67,330L364.07,330.88ZM395.63,334.02L392.38,333.68L391.53,336.23L389.77,339.26L387.99,339.71L385.77,339.08L384.4,340.17L381.96,340.43L380.26,338.18L382.8,339.16L384.32,336.58L386.87,335.9L388.84,333.21L389.89,334.31L390.92,332.61L391.66,332.32L393.54,329.46L395.09,329.15L398.82,331.61L396.81,332.75L397.42,333.65Z" class="land" id="MY" title="Malaysia"/>
    <path d="M235.83,364.65L234.67,365.9L235.06,368.18L237.54,370.79L237.37,373.58L236.23,374.59L236.47,375.67L234.45,373.23L235.02,372.05L234.61,370.27L233.27,370.59L232.43,369.48L231.4,368.68L232.81,366.45L232.54,363.3L233.31,362.7L231.88,360.38L234.59,361.01Z" class="land" id="MW" title="Malawi"/>
    <path d="M279.72,382.6L279.72,382.6L279.72,382.6Z" class="land" id="MU" title="Mauritius"/>
    <path d="M746.9,313.76L746.9,313.76L746.9,313.76Z" class="land" id="MQ" title="Martinique"/>
    <path d="M744.35,309.25L744.35,309.25L744.35,309.25Z" class="land" id="MS" title="Montserrat"/>
    <path d="M144.45,313.13L142.26,310.62L140.54,309.57L136.93,309.64L136.22,311.06L137.1,307.62L137.09,305.63L136.26,303.91L136.85,302.13L135.23,300.94L135.39,299.85L143.02,299.84L143,296.36L144.95,295.38L144.96,290L151.41,290L151.41,287.2L158.87,292.14L155.45,292.14L157.54,311.75L147.51,311.9L145.95,311.47Z" class="land" id="MR" title="Mauritania"/>
    <path d="M231.82,396.05L230.32,396.02L230,394.12L230.07,390.92L228.72,386.58L230.82,384.36L232.05,381.34L231.49,379.55L232.02,378.24L231.93,374.89L227,372.74L226.68,371.43L232.43,369.48L233.27,370.59L234.61,370.27L235.02,372.05L234.45,373.23L236.47,375.67L236.23,374.59L237.37,373.58L237.54,370.79L235.06,368.18L234.67,365.9L235.83,364.65L238.84,364.92L242.66,364.32L246.47,362.45L246.81,370.23L247.19,371.03L245.28,374.34L243.8,375.42L240.25,376.98L235.8,381.21L235.32,382.43L236.42,385.01L237.02,387.76L236.21,391.09L232.71,392.63L231.24,394.22Z" class="land" id="MZ" title="Mozambique"/>
    <path d="M450.14,312.48L450.14,312.48L450.14,312.48Z" class="land" id="MP" title="Northern Mariana Islands"/>
    <path d="M393.91,230.61L391.73,236.14L395.2,236.99L397.42,236.03L399.76,238.42L399.76,239.96L397.05,239.65L393.67,240.85L391.97,243.16L389.72,243.42L387.92,245.11L384.65,244.24L383.69,246.14L384.72,247.9L381.75,250.39L379.9,251.23L374.73,251.67L371.69,253.1L368.81,253.07L364.95,251.2L356.23,250.35L354.64,250.53L352.64,246.38L349.37,244.69L343.99,243.88L343.98,238.98L342.9,236.92L338.38,234.37L338.06,232.58L345.78,227.98L350.52,228.4L351.22,230.01L356.24,230.89L357.97,229.85L357.66,225.97L359.41,223.72L365.72,225.95L366.06,228.31L368.66,229.67L372.05,228.65L377.01,230.31L378.3,232.11L382.58,232.57L386.89,231.24L389.29,229.26Z" class="land" id="MN" title="Mongolia"/>
    <path d="M205.33,248.38L207.56,250.25L207.01,250.99L205.62,252.76L204.02,251.29L203.86,250.96Z" class="land" id="ME" title="Montenegro"/>
    <path d="M363.84,299.36L361.87,301.95L359.54,303.07L357.98,303.09L356.77,305.69L359.1,310.12L358.24,313.12L359.97,315.31L360.89,319.15L359.13,322.28L358.88,316.41L357.4,313.03L357.03,309.66L356.18,308.6L352.72,311.3L350.44,310.48L351.17,307.57L350.03,303.75L346.79,300.97L347.27,298.5L348.03,298.45L348.8,296.09L348.69,294.21L350.28,294.52L352.22,289.9L352.21,288.7L355.19,287.09L356.46,285.17L356.87,284.52L359.03,286.58L359.03,290.16L357.42,291.59L357.16,294.47L359.25,294.01L359.44,295.96L360.36,296.16L360.08,298.19L361.48,298.4L362.05,299.58Z" class="land" id="MM" title="Myanmar"/>
    <path d="M196.38,267.72L196.38,267.72L196.38,267.72Z" class="land" id="MT" title="Malta"/>
    <path d="M176.38,304.36L176.39,308.73L174.98,312.03L170.72,312.2L168.62,312.92L166.73,312.65L164.12,314.41L163.45,314.2L161.82,316.18L160.37,315.97L159.64,318.05L157.97,319.06L157.52,321.82L156.09,321.23L154.46,322.26L152.75,322.34L150.71,317.92L147.55,318.91L146.17,317.92L146.17,316.85L144.89,315.48L144.45,313.13L145.95,311.47L147.51,311.9L157.54,311.75L155.45,292.14L158.87,292.14L170.42,300.32L171.46,301.82L174.4,303.03L174.21,304.35Z" class="land" id="ML" title="Mali"/>
    <path d="M211.42,251.6L212.53,254.14L208.75,255.39L207.98,252.75L209.91,251.77Z" class="land" id="MK" title="North Macedonia"/>
    <path d="M499.17,328.25L499.17,328.25L499.17,328.25Z" class="land" id="MH" title="Marshall Islands"/>
    <path d="M676.65,290.07L675.64,293.43L675.27,297.15L676.7,301.33L679.21,305.16L681.68,306.34L687.87,304.86L689.04,303.93L689.79,300.52L694.09,299.26L696.62,299.66L695.37,302.39L694.8,305.79L693.77,305.73L692.09,307.07L688.56,307.07L687.75,308.2L689.61,310.59L687.11,310.6L686.15,313.66L682.9,310.63L680.99,309.9L677.88,311.44L675.47,310.81L673.52,309.66L669.49,308.32L667.56,306.85L664.47,306.03L661.58,304.02L660.16,301.81L661.05,299.52L659.93,297.15L654.93,291.71L652.98,290.57L653.33,289.33L650.86,287.12L647.6,283.4L645.77,279.44L645.89,278.57L642.42,277.17L642.79,280.69L646.23,284.71L646.5,286.02L648.75,288.46L650.73,293.8L652.91,295.35L651.93,296.6L651.08,295.09L647.78,292.47L647.19,289.52L645.58,288.13L644.82,288.43L642.13,286.22L643.95,284.71L640.81,281.76L640.06,279.42L638,275.49L642.65,275.07L642.43,275.54L649.77,278.24L655.24,278.23L655.24,277.21L658.65,277.23L661.62,279.91L662.42,281.94L664.83,283.44L666.74,281.51L668.34,281.72L669.86,283.29L672.09,286.63L672.85,289.02Z" class="land" id="MX" title="Mexico"/>
    <path d="M310.4,334.04L310.4,334.04L310.4,334.04Z" class="land" id="MV" title="Maldives"/>
    <path d="M264.03,366.34L264.8,367.61L265.85,372.22L265.32,373.38L264.24,372.59L264.61,374.44L263.91,377.3L259.46,391.62L258.59,392.39L255.47,393.23L253.38,392.06L251.89,385.84L254.1,381.44L253.27,376.27L254.23,373.9L258.1,372.48L260.69,370.54L262.59,367.99L263.39,365.64Z" class="land" id="MG" title="Madagascar"/>
    <path d="M222.77,243.18L222.5,238.91L219.69,235.23L221.49,234.6L224.68,236.32L226,239.33L224.58,240.18Z" class="land" id="MD" title="Moldova"/>
    <path d="M182.59,247.8L182.47,247.85L182.59,247.8Z" class="land" id="MC" title="Monaco"/>
    <path d="M163.91,269.5L164.73,270.33L164.95,273.68L166.14,275.64L165.74,276.5L163.47,276.41L160.8,277.48L160.79,278.53L157.66,281.32L154.48,282.06L151.45,284.06L151.41,286.39L142.71,286.4L146.09,284.8L147.92,283.3L149.5,280.98L149.23,278.01L150.32,275.4L151.57,273.98L154.85,272.16L156.74,267.88L157.76,267.54L159.83,269.36Z" class="land" id="MA" title="Morocco"/>
    <path d="M742.68,306.55L742.46,306.55L742.68,306.55Z" class="land" id="MF" title="Saint Martin"/>
    <path d="M387.71,298.05L387.84,297.99L387.71,298.05Z" class="land" id="MO" title="Macau"/>
    <path d="M221.11,205.37L221.97,206.13L222.65,210.27L219.64,211.91L216.37,209.38L214.86,209.84L210.92,209.35L208.91,210.52L208.96,207.88L210.23,205.21L211.83,204.66L213.95,207.36L215.41,206.1L215.25,204.13L216.78,203.42L219.53,205.36Z" class="land" id="LV" title="Latvia"/>
    <path d="M180.03,229.72L180.47,231.72L179.4,231.47Z" class="land" id="LU" title="Luxembourg"/>
    <path d="M219.64,211.91L217.62,216.41L216.11,217.59L213.63,217.71L212.24,216.33L212.37,214.72L209.28,213.28L208.91,210.52L210.92,209.35L214.86,209.84L216.37,209.38Z" class="land" id="LT" title="Lithuania"/>
    <path d="M222.04,400.55L223.57,399.83L225.05,401.35L224.49,402.8L222.4,404.42L220.53,402.23Z" class="land" id="LS" title="Lesotho"/>
    <path d="M322.91,323.02L324.32,323.9L326.57,327.96L326.12,329.64L324.35,330.51L323.13,330.17L322.55,327.38Z" class="land" id="LK" title="Sri Lanka"/>
    <path d="M186.73,238.68L186.63,238.08L186.73,238.68Z" class="land" id="LI" title="Liechtenstein"/>
    <path d="M746.77,315.1L746.77,315.1L746.77,315.1Z" class="land" id="LC" title="Saint Lucia"/>
    <path d="M216.85,277.49L216,280.93L216.52,283.04L216.52,298.47L216.52,302.6L214.59,302.61L214.59,303.64L199.12,295.43L197.18,296.37L195.73,297.16L194.28,295.98L191.35,295.27L190.46,293.59L188.04,293L186.48,289.84L187.27,288.79L187.24,283.52L186.62,280.71L187.96,279.46L187.77,277.93L190.46,275.76L190.46,273.99L191.96,274.74L193.9,274.61L197.56,275.81L199.39,278.38L201.76,278.79L204.83,280.57L206.33,280.13L207.18,278.8L206.75,277.12L208.09,275.38L210.05,274.56L212.87,275.29L213.25,276.22L215.95,276.67Z" class="land" id="LY" title="Libya"/>
    <path d="M151.79,327.44L151.56,329.48L153.78,330.78L153.61,333.67L150.54,332.31L145.94,328.71L148.31,325.63L149.79,325.9L149.9,327.66Z" class="land" id="LR" title="Liberia"/>
    <path d="M237.59,273.41L236.11,274.22L237.79,270.62L238.97,271.58Z" class="land" id="LB" title="Lebanon"/>
    <path d="M365.75,297.67L367.34,299.35L367.64,300.76L369.47,300.66L371.17,302.56L369.17,303.96L370.76,305.06L375.94,310.65L376.18,313.34L374.21,313.59L373.06,314.89L371.66,314.05L372.51,311.34L370.83,309.43L370.95,308.11L369.28,306.04L368.15,305.83L366.89,306.91L365.7,306.27L363.39,307.54L364.12,304.7L361.87,301.95L363.84,299.36L364.93,300.22L364.58,297.93Z" class="land" id="LA" title="Lao People's Democratic Republic"/>
    <path d="M261.91,284.45L258.21,283.23L259.34,281.31L261.01,281.26Z" class="land" id="KW" title="Kuwait"/>
    <path d="M209.91,251.77L207.98,252.75L207.01,250.99L207.56,250.25L208.93,249.55L210.28,250.67Z" class="land" id="XK" title="Kosovo"/>
    <path d="M416.52,260.99L418.38,264.3L418.82,267.49L418.15,269.32L415.25,269.85L412.86,270.94L412.49,269.38L413.32,267.92L412.35,265.28L413.16,263.06L414.19,261.78Z" class="land" id="KR" title="South Korea"/>
    <path d="M743.41,308.24L743.41,308.24L743.41,308.24Z" class="land" id="KN" title="Saint Kitts and Nevis"/>
    <path d="M560.21,338.51L560.21,338.51L560.21,338.51Z" class="land" id="KI" title="Kiribati"/>
    <path d="M370.2,321.85L367.73,320.86L367.31,319.3L366.12,315.66L367.83,314.08L371.66,314.05L373.06,314.89L374.21,313.59L376.18,313.34L376.16,317.99L372.95,319.44L373.57,320.66Z" class="land" id="KH" title="Cambodia"/>
    <path d="M323.35,251.92L319.32,254.81L316.81,255.05L316.14,256.41L314.41,256.01L311.33,257.44L310.63,258.93L307.1,259.37L306.32,258.56L302.83,258.62L303.54,257.03L305.46,256.94L306.88,257.16L309.63,255.55L307.07,253.94L306.33,254.65L303.96,253.53L305.44,251.77L307.12,250.27L310.23,250.87L311.75,249.16L313.37,250.05L317.04,249.87L321.33,250.43Z" class="land" id="KG" title="Kyrgyzstan"/>
    <path d="M249.22,334.4L247.44,336.65L247.47,343.78L248.54,345.38L246.01,347.3L244.07,351.19L241.32,349.21L241.02,347.99L233.78,344.04L233.86,341.76L235.49,339.72L235.83,338.11L234.73,334.95L233.92,333.93L236.42,331.46L237.35,331.75L238,333.48L239.59,333.56L241.87,335.04L244.6,335.41L247.06,333.83Z" class="land" id="KE" title="Kenya"/>
    <path d="M337.11,232.81L334.07,234.87L333.89,238.12L332.21,239.33L329.13,238.32L327.45,242.99L323.06,244.4L324.47,249.37L323.35,251.92L321.33,250.43L317.04,249.87L313.37,250.05L311.75,249.16L310.23,250.87L307.12,250.27L305.44,251.77L301.8,254.06L300.3,255.88L299.61,254.5L297.44,254.64L296.83,252.43L295.89,252.41L295.49,250.12L293.75,247.89L288.11,248.49L286.21,246.07L281.47,242.89L276.48,244.43L276.48,254.17L275.65,254.33L272.89,251.54L269.74,252.99L269.94,250.43L268.49,250.03L266.53,246.61L265.56,246.25L267.66,243.43L269.82,243.32L270.98,241.12L270.56,238.98L267.2,238.53L263.43,240.72L261.26,236.72L259.3,236.13L258.46,234.79L258.73,231.98L259.75,229.26L261.89,230.6L262.61,228.27L266.46,224.79L271.38,225.55L273.47,227.72L276.13,228.26L277.48,226.98L281.09,226.85L283.9,228.32L286.95,227.47L286.9,225.68L284.39,224.01L286.08,223.05L286.29,220.85L288.08,220.94L286.16,218.75L287.99,217.68L294.86,215.44L299.88,214.31L301.63,212.86L305.03,213.14L305.72,216.81L309.24,217.15L309.96,218.82L312.22,218.66L315.73,216.48L318.51,219.54L322.92,227.74L324.65,226.18L325.78,227.84L329.44,227.06L333.03,231.09L335.74,231.26Z" class="land" id="KZ" title="Kazakhstan"/>
    <path d="M441.39,254.04L442.84,257.94L442.69,259.78L440.8,262.65L440.22,266.16L440.7,268.03L438.62,269.85L438.33,268.78L437.04,270.46L432.98,270.2L431.11,273.11L430.21,273.13L428.83,270.3L425.74,271.39L421.44,272.15L425.32,268.53L429.67,267.97L430.65,268.55L432.62,265.59L435.76,264.43L437.85,262.17L439.1,258.9L438.86,256.03L441.17,255.3ZM446.41,246.81L448.88,247.76L449.35,249.33L446.69,250.11L445.27,252.42L442.59,250.9L440.92,251.53L439.75,253.67L438.8,250.72L441.52,249.27L442.76,243.02ZM421.94,273.02L423.49,274.77L422.25,278.06L420.05,278.31L420.04,276.5L420.9,275.29L418.85,273.87L421.51,272.39ZM428.09,271.49L428.83,272.51L427.75,273.84L426.69,273.23L425.42,274.78L424.24,273.23L425.05,272.11Z" class="land" id="JP" title="Japan"/>
    <path d="M243.92,276.42L239.69,277.86L241.67,280.1L239.3,281.52L237.87,283.02L235.81,282.66L235.85,282.21L236.78,277.89L236.97,275.8L237.43,275.02L239.42,275.98L243.2,273.55Z" class="land" id="JO" title="Jordan"/>
    <path d="M164.3,232.38L164.3,232.38L164.3,232.38Z" class="land" id="JE" title="Jersey"/>
    <path d="M715.11,305.76L716.88,306.38L714.13,306.94L713.27,305.78Z" class="land" id="JM" title="Jamaica"/>
    <path d="M186.83,255.3L186.7,259.64L184.49,259.54L184.04,255.89L186.16,254.48ZM198.33,261.98L197.41,263.85L197.44,265.72L196.25,265.45L192.26,262.97ZM194.7,240.2L194.74,242.8L191.95,243.19L192.18,246.53L194.44,248.28L195.3,250.61L197.54,252.59L199.08,252.58L199.18,253.88L202.93,255.88L203.96,257.28L200.95,256.39L200.18,257.9L201.42,260.06L198.62,262.67L199.53,260.65L198.56,257.57L194.77,254.4L192.64,253.79L188.92,249.96L187.64,247.07L185.16,245.99L182.7,247.75L181.02,244.09L181.78,241.86L184.56,240.97L185.52,242.13L188.42,239.23L191.71,239.03ZM192.35,247.39L192.35,247.39L192.35,247.39Z" class="land" id="IT" title="Italy"/>
    <path d="M237.43,275.02L236.97,275.8L236.28,275.48L235.81,277.61L236.78,277.89L235.85,282.21L235.72,282.38L234.44,278.5L234.89,277.65L236.11,274.22L237.59,273.41Z" class="land" id="IL" title="Israel"/>
    <path d="M828.18,182.16L825.49,181.58L822.33,178.72L820.68,175.02L822,172.86L817.7,172.89L818.65,170.14L821.18,168.41L823.35,171.06L823.5,173.2L825.19,170.32L828.18,170.07L828.18,182.16ZM131.82,170.07L135.81,169.85L137.28,168L138.14,169.38L138.14,169.38L141.87,172.89L141.41,175.77L139.15,178.32L132.12,182.22L131.82,182.16L131.82,170.07Z" class="land" id="IS" title="Iceland"/>
    <path d="M254.79,264.62L257.44,269.44L256.02,272.16L257.4,274.51L259.83,275.74L260.72,277.17L260.43,278.97L262.11,281.3L261.01,281.26L259.34,281.31L258.21,283.23L254.7,283.01L249.59,278.79L246.29,276.84L243.92,276.42L243.2,273.55L247.89,270.29L248.32,266.13L250.14,264.7L250.94,264.06Z" class="land" id="IQ" title="Iraq"/>
    <path d="M257.4,260.36L258.13,260.29L261.04,258.34L261.1,260.5L262.73,261.45L263.14,263.34L265.17,263.97L267.08,265.59L269.16,265.88L272.69,265.08L272.49,264.13L274.74,262.76L277.38,261.91L282.79,263.7L284.92,265.84L286.43,265.83L286.7,268.28L285.2,271.87L286.04,273.24L285.35,274.09L285.91,277.88L287.47,278.11L287.71,279.35L285.89,281.54L287.4,283.9L289.56,285.64L290.39,288.55L287.88,289.46L287.33,291.7L286.99,291.91L279.11,290.43L278.43,288.03L277.21,287.39L274.39,288.78L272.09,288.42L269.71,286.48L267.39,285.36L266.18,282.51L264.89,280.75L262.11,281.3L260.43,278.97L260.72,277.17L259.83,275.74L257.4,274.51L256.02,272.16L257.44,269.44L254.79,264.62L253.72,262.75L254.15,261.65L253.36,259.11L254.89,258.43Z" class="land" id="IR" title="Iran"/>
    <path d="M156.18,217.22L156.54,220.99L155.51,223.34L153.64,223.63L151.15,225.24L148.13,224.35L150.21,220.45L149.26,219.48L148.87,216.6L151.52,216.36L152.2,213.68L154.24,213.87L152.5,216.14Z" class="land" id="IE" title="Ireland"/>
    <path d="M308.43,356.41L308.43,356.41L308.43,356.41Z" class="land" id="IO" title="British Indian Ocean Territory"/>
    <path d="M324.9,280.85L323.73,281.82L323.09,283.82L326.53,285.93L329.31,287.02L330.86,286.76L333.19,288.39L338.53,289.06L338.64,285.93L339.63,285.44L340.15,287.14L341.84,288.47L346.16,288.14L345.45,286.17L347.45,285.75L348.5,284.35L351.24,282.75L352.78,283.32L353.97,282.45L355.4,284.84L356.46,285.17L355.19,287.09L352.21,288.7L352.22,289.9L350.28,294.52L348.69,294.21L348.8,296.09L348.03,298.45L347.27,298.5L346.64,294.92L345.43,296.41L344.54,294.97L345.92,293.84L346.26,291.77L341.93,291.48L341.95,290.11L339.28,289.19L338.71,293.22L339.84,293.77L340.46,298.26L340.46,299.18L338.32,298.82L336.22,300.05L336.44,301.16L335.1,302.77L332.18,304.4L330.89,306.1L327.51,308.53L327.32,309.61L323.52,311.32L323.05,312.6L323.61,316.02L322.68,318.74L322.64,322.02L321.77,322.06L320.98,324.09L319.45,324.83L318.15,326.42L317.08,325.78L315.84,323.73L314.68,319.98L313.66,318.6L312.08,313.76L310.33,310.63L308.77,302.95L309.18,301.44L308.62,297.88L307.55,298.83L307.5,300.21L305.59,301.08L303.85,300.34L301.69,298.05L303.95,297.26L300.98,295.96L300.06,294.56L301.15,293.69L305.63,293.41L303.91,288.97L302.58,288.25L304.39,285.59L305.03,286.24L307.22,285.73L309.22,283.38L310.15,281.37L312.57,278.9L312.33,277.36L313.92,276.07L311.33,273.85L311.27,270.56L314.65,270.92L316.36,270.37L318.69,268.57L319.63,270.56L320.89,271.27L320.63,273.26L321.44,275.56L319.83,275.52L320.71,278.29Z" class="land" id="IN" title="India"/>
    <path d="M159.67,216.9L159.67,216.9L159.67,216.9Z" class="land" id="IM" title="Isle of Man"/>
    <path d="M354.85,331.97L356.71,331.96L358.36,334.17L361.12,335.94L362.52,337.73L363.66,337.73L366.41,340.59L368.37,341.17L368.83,343.81L370.07,344.11L370.67,346.71L372.08,346.7L373.33,348.11L372.94,349.09L372.89,353.1L370.54,353.54L366.54,350.14L363.28,346.25L362.23,343.7L360.01,341.42L358.86,338.42L357.19,337.54L355.77,335.18L352.92,332.88L352.4,331.32ZM400.35,360.31L401.93,361.61L401.17,362.12L398.75,360.33ZM410.13,360.58L407.78,362.22L408.13,360.25L409.84,359.47ZM393.82,358.82L393.82,358.82L393.82,358.82ZM405.71,358.82L402.32,359.45L399.95,358.99L401.5,358.09L403.12,358.75ZM396.92,358.25L398.4,359.09L394.64,359.77L394.2,358.66ZM391.52,357.93L391.11,359.18L389.64,357.86ZM413.48,356.98L413.48,356.98L413.48,356.98ZM436.18,358.16L434.53,358.14L435.15,356.92L436.63,356.43ZM422.23,357.62L422.23,357.62L422.23,357.62ZM388.42,355.88L388.42,355.88L388.42,355.88ZM428.44,354.59L428.44,354.59L428.44,354.59ZM375.9,353.74L377.68,354.24L378.42,355.26L381.8,355.57L382.4,354.64L385.89,355.53L386.38,356.75L388.85,356.91L389.85,359.13L387.27,358.18L386.16,358.42L382.15,357.92L378.54,356.97L374.46,356.48L372.24,355.25L373.39,353.56ZM428.85,353.16L428.85,353.16L428.85,353.16ZM405.44,352.31L405.44,352.31L405.44,352.31ZM413.59,348.07L414.31,349.13L413.26,349.5L411.98,348.23ZM419.19,347.64L420.4,347.88L421.22,349.57L419.36,348.54L416.61,348.71L416.18,347.64ZM377.51,347.9L376.36,348.31L376.47,347.06ZM409.94,345.4L409.94,345.4L409.94,345.4ZM430.25,345.18L430.25,345.18L430.25,345.18ZM373.33,345.33L374.3,348.01L372.83,346.32L371.57,346.05ZM416.09,345.31L416.09,345.31L416.09,345.31ZM360.02,345.54L360.02,345.54L360.02,345.54ZM430.08,343.36L430.08,343.36L430.08,343.36ZM440.89,347.15L440.9,359.81L438.88,357.82L436.8,357.91L437.24,356.82L435.26,352.69L431.23,350.87L429.72,350.72L426.73,348.61L425.41,350.03L424.21,347.86L427.25,346.17L424.13,346.44L422.1,343.75L424.74,342.79L427.35,343.54L427.7,346.35L429.41,348.55L430.28,348.57L432.03,346.5L434.77,344.97L438.6,346.64ZM356.76,339.26L356.76,339.26L356.76,339.26ZM409.78,340.17L408.89,341.19L401,341.23L400.35,342.69L401.61,344.75L403.26,343.75L405.91,343.56L405.17,344.71L402.93,345.86L404.96,348.29L404.68,349.11L405.93,350.52L404.03,351.49L403.45,350.02L402.09,348.98L402.36,347.42L400.81,348.01L401.17,349.27L400.93,352.84L399.12,352.61L399.59,349.91L398.38,348.95L397.97,347.45L399.01,345.83L399.95,341.64L402.09,339.61L405.92,340.45L407.76,340.48L409.97,338.81ZM415.28,340.46L416.62,339.16L417.13,341.4L415.76,341.19L415.89,343.46L415.2,342.57L414.68,339.68L415.82,338.81ZM395.63,334.02L394.84,335.15L396.58,337.61L396.19,338.29L398.36,340.2L395.96,340.69L395.61,343.59L393.66,344.95L393.68,346.55L392.5,349.06L390.06,350.17L389.75,348.86L387.8,348.26L384.5,348.94L384.51,348.02L381.43,347.76L381.02,344.8L379.36,343.06L378.94,341.41L379.19,339.21L380.26,338.18L381.96,340.43L384.4,340.17L385.77,339.08L387.99,339.71L389.77,339.26L391.53,336.23L392.38,333.68Z" class="land" id="ID" title="Indonesia"/>
    <path d="M211.01,234.81L212.45,236.14L211.32,236.77L209.12,240.81L207.36,241.35L204.77,241.85L202.95,242.3L200.15,240.26L199.33,239.23L201.37,235.97L202.56,236.65L206.69,235.6L207.84,234.45Z" class="land" id="HU" title="Hungary"/>
    <path d="M725.72,303.18L725.74,306.61L722.61,306.18L721.64,306.61L720.98,305.34L723.76,305.81L724.62,305.32L723.13,302.8Z" class="land" id="HT" title="Haiti"/>
    <path d="M204.77,241.85L204.97,244.77L204.3,244.21L198.74,243.93L198.64,245.06L202.22,249.96L199.04,248.05L197.46,246.44L196.03,243.48L195.22,244.87L194.47,243L197.87,243.13L198.45,241.1L200.15,240.26L202.95,242.3ZM202.38,250.07L203.86,250.96L204.02,251.29Z" class="land" id="HR" title="Croatia"/>
    <path d="M703.71,312.76L700.17,313.24L698.62,315.05L696.79,315.22L695.62,316.78L694.7,315.94L691.71,313.91L693.9,311.28L697.52,311.18L698.63,310.73L701.57,311.1Z" class="land" id="HN" title="Honduras"/>
    <path d="M310.78,463.88L310.78,463.88L310.78,463.88Z" class="land" id="HM" title="Heard Island and McDonald Islands"/>
    <path d="M388.75,297.39L389.23,297.33L388.75,297.39Z" class="land" id="HK" title="Hong Kong"/>
    <path d="M753.93,331.35L752.27,334.02L755.31,338.34L754.08,338.2L749.99,339.44L748.51,336.89L749.37,334.48L748.29,333.36L748.52,332.25L747.07,332.02L745.84,330.65L746.29,329.12L747.74,328.63L747.11,327.55L748.83,325.98L748.47,325.5L751.16,327.46L751.44,328.45L753.94,330.28Z" class="land" id="GY" title="Guyana"/>
    <path d="M448.18,316.22L448.18,316.22L448.18,316.22Z" class="land" id="GU" title="Guam"/>
    <path d="M764.65,334.24L762.11,337.87L758.92,337.6L760.13,335.15L759.23,332.39L759.81,331.72L760.4,330.89L762.24,331.59Z" class="land" id="GF" title="French Guiana"/>
    <path d="M692.09,307.07L691.95,310.95L692.61,310.96L693.9,311.28L691.71,313.91L690.29,315.27L688.26,314.89L686.15,313.66L687.11,310.6L689.61,310.59L687.75,308.2L688.56,307.07Z" class="land" id="GT" title="Guatemala"/>
    <path d="M815.37,144.43L815.43,146.01L810.6,147.17L810.96,144.58ZM762.56,150.08L763.76,152.62L760.92,153.9L758.55,151.84L758.5,148.85L761.32,148.51ZM131.82,53.42L134.88,54.91L138.11,49.55L144.62,52.03L145.9,54.99L140.15,63.25L135.78,65.52L135.57,69.86L131.82,69.33L131.82,53.42ZM828.18,69.33L826.98,69.18L825.61,74.26L827.26,75.57L827.67,81.16L824.03,87.14L825.43,98.15L828.18,99.15L828.18,103.13L828.18,103.13L824.05,102.33L822.24,104.97L822.84,107.28L825.68,107.89L826.99,115.65L824.94,115.01L827.37,121.21L823.69,123.84L824.89,128.13L821.65,129.64L821.44,137.12L816.85,135.1L821.98,139.8L822.93,146.75L819.44,147.19L817.41,143.1L811,144.01L809.35,147.04L812.82,147.04L819.74,149.11L819.9,150.42L813.61,156.88L804.64,160.25L802.4,158.56L802.13,160.97L800.43,162.48L798.6,166.97L794.19,171.28L791.53,172.4L787.26,172.57L788.01,173.57L785.92,175.53L786.84,177.5L786.12,180.84L783.02,185.79L783.11,188.75L780.77,196.42L776.78,195.35L775.56,191.83L772.11,192.89L769.93,191.1L768.71,187.2L765,181.2L763.48,174.43L760.82,168.49L761.97,166.48L760.33,164.95L761.97,157.37L765.43,156.68L766.88,150.13L763.48,149.43L760.08,147.35L759.79,145.03L764.9,147.25L765.66,144.14L761.82,142.09L761.12,140.1L758.78,141.77L757.03,140.63L757.01,135L758.68,132.28L756.04,127.68L754.87,123.07L755.75,120.87L751.2,114.47L751.37,112.11L745.84,108.21L741.85,106.91L735.3,109.9L730.37,106.97L730.61,104.03L727.63,102.49L727.49,99.85L730.41,97.28L723.71,90.6L724.53,87.63L734.03,81.52L736.96,81.36L739.23,72.08L735.26,71.24L734.97,67.39L742.71,57.77L745.72,58.7L746.18,50.72L750.98,45.96L758.7,42.27L762.48,42.7L766.12,48.71L770.05,41.48L776.95,49.61L778.99,42.02L774.66,33.18L781.01,28.3L800.76,22.47L806.62,23.07L806.62,23.07L814.37,27.72L817.23,34.35L822.93,38.66L815.92,47.24L823.29,46.3L823.66,51.42L828.18,53.42L828.18,69.33ZM131.82,99.15L132.73,99.5L132.4,103.26L131.82,103.13L131.82,99.15Z" class="land" id="GL" title="Greenland"/>
    <path d="M745.18,318.69L745.18,318.69L745.18,318.69Z" class="land" id="GD" title="Grenada"/>
    <path d="M214.34,268.48L218,269.41L216.17,269.9L213.78,269.05ZM218.57,255.7L215.37,255.23L213.98,256.98L211.98,256.29L212.63,259.98L214.56,261.85L213.07,262.62L212.83,265.51L209.95,264.77L209.04,261.58L206.89,258.28L208.75,255.39L212.53,254.14L214.73,253.65L217.05,254.38L219.12,253.16L219.7,253.97ZM213.5,260.16L213.5,260.16L213.5,260.16Z" class="land" id="GR" title="Greece"/>
    <path d="M186.75,340.1L187.16,337.64L190.12,337.91L190.13,340.16Z" class="land" id="GQ" title="Equatorial Guinea"/>
    <path d="M139.1,320.81L138.22,319.26L135.88,318.01L138.81,317.37L141.65,317.38L141.64,319.24L139.8,319.69Z" class="land" id="GW" title="Guinea-Bissau"/>
    <path d="M135.78,316.61L136.17,315.57L138.2,315.57L137.57,316.42Z" class="land" id="GM" title="Gambia"/>
    <path d="M745.94,310.28L745.94,310.28L745.94,310.28Z" class="land" id="GP" title="Guadeloupe"/>
    <path d="M146.17,317.92L147.55,318.91L150.71,317.92L152.75,322.34L153.07,325.66L151.79,327.44L149.9,327.66L149.79,325.9L148.31,325.63L146.53,322.7L144.02,322.93L142.49,324.52L141.7,322.95L139.1,320.81L139.8,319.69L141.64,319.24L141.65,317.38L144.43,318.07Z" class="land" id="GN" title="Guinea"/>
    <path d="M168.07,320.46L168.9,322.19L168.71,323.65L169.43,327.84L169.22,328.82L170.5,330.3L164.33,332.88L162.36,332.16L162.8,332.06L161.94,328.9L163.36,326.17L162.99,323.67L162.73,320.69Z" class="land" id="GH" title="Ghana"/>
    <path d="M163.34,231.6L163.34,231.6L163.34,231.6Z" class="land" id="GG" title="Guernsey"/>
    <path d="M258.01,252.7L258.07,254.82L255.25,254.25L252.23,254.73L250.97,253.55L248.5,253.67L248.46,250.69L245.53,248.68L246.83,248.38L250.26,249.2L252.89,250.46L256.65,251.18Z" class="land" id="GE" title="Georgia"/>
    <path d="M193.92,337.92L193.88,339.7L195.63,339.45L196.12,340.53L195.01,342.49L196.21,343.29L196.03,345.76L194.87,346.29L190.59,346.74L191.29,348.52L189.73,349.68L186.82,346.68L185.27,343.47L186.19,342.78L186.75,340.1L190.13,340.16L190.12,337.91Z" class="land" id="GA" title="Gabon"/>
    <path d="M179.4,231.47L180.47,231.72L183.94,233.14L182.93,237.16L179.92,240.46L181.78,241.86L181.02,244.09L182.7,247.75L182.59,247.8L182.47,247.85L180.03,249.6L176.04,248.22L174.11,250.02L174.42,251.29L171.5,251.1L170.97,250.86L168.12,250.62L164.73,248.71L165.33,248.3L166.14,242.2L165.99,240.79L162.09,236.86L159.86,236.49L159.07,234.41L161.95,233.53L162.99,234.42L165.42,234.12L164.61,231.03L167.89,232.19L170.61,230.09L171.26,227.84L173.09,226.75L173.7,227.93ZM186.54,250.31L185.97,254.01L185.06,250.98Z" class="land" id="FR" title="France"/>
    <path d="M474.44,328.89L474.44,328.89L474.44,328.89Z" class="land" id="FM" title="Federated States of Micronesia"/>
    <path d="M155.38,187.22L155.38,187.22L155.38,187.22Z" class="land" id="FO" title="Faroe Islands"/>
    <path d="M750.73,457.98L752.68,459.35L750.31,460.81L749.33,460.03ZM747.95,458.58L749.92,458.47L748.65,460.16Z" class="land" id="FK" title="Falkland Islands"/>
    <path d="M513.06,376.23L513.81,377.67L511.2,377.66L511.78,376.41ZM516.38,373.8L516.24,374.96L514.07,374.73Z" class="land" id="FJ" title="Fiji"/>
    <path d="M224.23,155.17L223.27,158.02L226.12,162.88L224.47,165.77L226.05,170.04L225.47,175.28L227.21,179.54L226.34,181L228.52,183.08L228.72,185.8L221.97,194.05L217.83,194.85L214.09,196.27L209.67,193.81L210,189.83L209.02,185.57L215.71,176.05L217.28,175.1L217.23,172.93L214.93,171.4L214.6,166.56L213.6,163.37L213.93,160.8L212.27,158.53L208.09,155.09L210.03,153.82L211.55,156.79L214.34,156.33L216.45,157.46L218.01,155.34L219.51,150.24L222.15,149.41L224.57,151.61Z" class="land" id="FI" title="Finland"/>
    <path d="M250.18,317.79L248.99,319.53L249.05,320.73L251.23,320.69L250.72,321.44L253.36,324.65L259.07,326.58L261.01,326.58L255.13,332.59L253.37,332.51L249.22,334.4L247.06,333.83L244.6,335.41L241.87,335.04L239.59,333.56L238,333.48L237.35,331.75L236.42,331.46L235.34,329.19L233.32,327.22L232.06,326.67L234.15,325.44L234.12,323.71L234.5,321.62L235.77,320.96L236.12,319.08L238.05,317.28L238.85,314.23L240.88,314.45L241.48,313.04L242.68,313.9L243.78,313.49L247.06,314.46Z" class="land" id="ET" title="Ethiopia"/>
    <path d="M222.39,198.12L221.26,200.95L221.89,204.23L221.11,205.37L219.53,205.36L216.78,203.42L215.25,204.13L215.65,202.36L214.18,202.33L213.65,199.22L217.55,197.53ZM211.95,201.37L213.26,201.88L211.12,203.09Z" class="land" id="EE" title="Estonia"/>
    <path d="M164.73,248.71L168.12,250.62L170.97,250.86L171.5,251.1L174.42,251.29L174.49,252.56L172.23,254.26L170.2,254.84L167.57,258.75L168.59,260.65L164.12,265.5L159.76,265.64L157.32,267.31L155.64,265.07L153.88,264.53L154.57,260.28L153.8,258.71L155.03,256.68L154.8,254.98L156.19,253.63L155.4,252.57L151.22,252.57L150.34,249.86L153.31,247.76L154.16,248.21L159.45,248.69ZM174.29,258.08L174.15,259.3L172.79,258.52ZM136.61,284.81L136.61,284.81L136.61,284.81Z" class="land" id="ES" title="Spain"/>
    <path d="M242.89,306.68L244.22,310.9L245.97,312.72L247.85,313.51L251.6,317.31L250.18,317.79L247.06,314.46L243.78,313.49L242.68,313.9L241.48,313.04L240.88,314.45L238.85,314.23L238.66,312.48L239.79,308.6L240.57,308.6Z" class="land" id="ER" title="Eritrea"/>
    <path d="M156.18,217.22L152.5,216.14L154.24,213.87L156.35,213.44L157.62,215.85ZM162.19,201.76L160.48,203.81L164.76,205.49L163.07,209.66L162.05,210.48L165,212.24L165.7,214.94L166.9,215.84L169.28,220.87L171.41,221.55L171.22,223.66L169.53,225.85L170.94,225.92L168.6,227.77L161.62,228.17L157.87,229.34L160.1,226.46L162.14,226.41L158.36,223.95L160.5,222.22L160.25,220.05L162.54,218.38L160.55,214.91L158.27,214.66L159.07,212.75L156.72,208.65L157.88,202.78L159.08,201.78Z" class="land" id="GB" title="United Kingdom"/>
    <path d="M234.35,278.25L234.44,278.5L235.72,282.38L234.4,286.16L232.51,284.4L231.5,282.29L231.32,283.46L233.09,285.87L233.89,288.59L236.28,293.25L237.11,294.12L237.25,296.48L239.52,298.46L216.52,298.47L216.52,283.04L216,280.93L216.85,277.49L220.91,278.12L224.44,279.36L228.54,277.64L230.3,278.77Z" class="land" id="EG" title="Egypt"/>
    <path d="M688.01,342.05L688.01,342.05L688.01,342.05ZM718.94,342.3L718.38,345.06L716.24,347.06L713.95,347.87L711.6,351.76L710.52,350.72L708.87,350.61L709.19,348.66L710.34,347.09L708.95,347.18L708.07,344.19L709.56,342.11L709.64,340.58L712.02,339.28L716.6,341.64Z" class="land" id="EC" title="Ecuador"/>
    <path d="M184.79,265.11L184.12,266.06L184.44,269.26L182.74,271.9L183.22,273.87L185.7,276.54L186.62,280.71L187.24,283.52L187.27,288.79L186.48,289.84L188.04,293L190.46,293.59L191.35,295.27L182.68,300.8L179.49,303.67L176.38,304.36L174.21,304.35L174.4,303.03L171.46,301.82L170.42,300.32L158.87,292.14L151.41,287.2L151.41,286.39L151.45,284.06L154.48,282.06L157.66,281.32L160.79,278.53L160.8,277.48L163.47,276.41L165.74,276.5L166.14,275.64L164.95,273.68L164.73,270.33L163.91,269.5L168.3,267.61L170.63,266.12L175.51,265.21L178.25,265.74L180.75,264.76Z" class="land" id="DZ" title="Algeria"/>
    <path d="M725.74,306.61L725.72,303.18L727.31,302.78L731.7,304.85L732.33,305.6L727.17,306.14L726.46,307.41Z" class="land" id="DO" title="Dominican Republic"/>
    <path d="M187.04,214.76L184.97,214.5L183.93,212.14L183.99,208.64L184.87,206.86L188.59,205.65L187.9,211.23L186.76,212.5ZM192.52,211.5L190.75,213.54L189.44,211.72L191.84,210.35ZM188.79,212.1L189.06,213.73L187.28,212.43Z" class="land" id="DK" title="Denmark"/>
    <path d="M746.02,312.25L746.02,312.25L746.02,312.25Z" class="land" id="DM" title="Dominica"/>
    <path d="M251.86,319.7L251.23,320.69L249.05,320.73L248.99,319.53L250.18,317.79L251.6,317.31Z" class="land" id="DJ" title="Djibouti"/>
    <path d="M187.04,214.76L190.25,217.69L192.53,215.96L195.78,218.39L195.53,221.15L196.48,222.27L196.85,227.48L192.29,229.03L192.64,231.7L194.93,233.75L192.99,235.52L192.74,236.94L190.06,237.64L186.63,237.35L184.87,236.66L182.93,237.16L183.94,233.14L180.47,231.72L180.03,229.72L179.8,227.81L179.71,224.68L181.24,224.22L182.12,219.85L182.29,218.55L184.72,218.96L185.41,218.05L184.97,214.5Z" class="land" id="DE" title="Germany"/>
    <path d="M196.85,227.48L199.17,228.23L200.47,229.79L201.38,228.94L204.11,230.45L204.63,231.55L201,234.24L197.16,233.11L196.62,234.24L194.93,233.75L192.64,231.7L192.29,229.03Z" class="land" id="CZ" title="Czechia"/>
    <path d="M234.87,268.34L234.07,269.77L231.92,270.74L230.71,269.86L231.92,268.82Z" class="land" id="CY" title="Cyprus"/>
    <path d="M707.17,303.94L707.17,303.94L707.17,303.94Z" class="land" id="KY" title="Cayman Islands"/>
    <path d="M372.71,362.51L372.71,362.51L372.71,362.51Z" class="land" id="CX" title="Christmas Island"/>
    <path d="M731.57,318.6L731.57,318.6L731.57,318.6Z" class="land" id="CW" title="Curaçao"/>
    <path d="M704.86,299.35L704.86,299.35L704.86,299.35ZM706.26,296.02L709.67,296.48L711.4,297.65L714.66,298.73L716.3,299.95L718.09,300.31L720.93,302.44L714.24,302.9L715.17,301.27L713.69,301.13L712.45,299.47L708.85,298.33L706.3,298.04L706.13,297.04L704.52,297.02L701.45,298.3L701.99,297.06Z" class="land" id="CU" title="Cuba"/>
    <path d="M702.77,320.85L704.86,323.49L704.13,323.74L704.25,326.44L702.78,324.55L698.94,322.85L698.7,320.57Z" class="land" id="CR" title="Costa Rica"/>
    <path d="M819.21,312.73L819.21,312.73L819.21,312.73Z" class="land" id="CV" title="Cape Verde"/>
    <path d="M252.28,365.29L252.28,365.29L252.28,365.29Z" class="land" id="KM" title="Comoros"/>
    <path d="M726.61,318.99L725.37,319.37L723.96,321.01L722.67,324.17L723.75,324.4L725.13,328.34L728.98,328.65L730.24,330.21L733.3,329.91L734.11,330.42L733.31,333.37L734.36,335.49L733.35,336.5L734.55,337.47L735.2,339.73L734.28,338.06L732.69,338.77L729.45,338.79L729.45,340.05L730.78,340.43L729.05,340.98L729.02,342.37L730.32,344.41L729.23,350.3L727.74,349.42L729.02,347.42L727.39,346.39L724.53,346.8L723.06,346.51L722.07,344.51L719.87,342.49L718.94,342.3L716.6,341.64L712.02,339.28L712.49,337.64L714.32,336.53L715.14,330.9L713.88,328.08L715.21,326.51L714.89,325.29L715.84,325.36L718.25,323.74L718.19,322.27L719.79,320.47L722.75,320.11L725.84,317.88Z" class="land" id="CO" title="Colombia"/>
    <path d="M555.57,384.18L555.57,384.18L555.57,384.18Z" class="land" id="CK" title="Cook Islands"/>
    <path d="M204.2,335.37L203.16,338.2L202.54,343.16L200.85,344.47L199.57,346.31L199.44,348.8L196.79,351.48L195.98,350.42L194.15,351.47L193.49,351.07L191.45,351.79L189.73,349.68L191.29,348.52L190.59,346.74L194.87,346.29L196.03,345.76L196.21,343.29L195.01,342.49L196.12,340.53L195.63,339.45L193.88,339.7L193.92,337.92L198.65,338.39L199.51,337.71L200.45,335.26Z" class="land" id="CG" title="Republic of Congo"/>
    <path d="M221.21,332.2L222.74,333.68L225.61,333.22L227.85,335.34L227.64,337.35L228.66,338.14L226.12,340.51L225.41,344.78L224.06,346.74L224.33,347.36L225.08,350.71L225.67,354.93L227.69,358L224.25,358.53L223.14,360.02L223.6,362.86L223.06,364.46L224.42,366.17L225.84,365.79L225.84,368.24L224.33,368.2L223.06,366.44L220.33,365.28L218.55,365.27L216.92,363.99L215.63,364.37L214.56,363.26L211.84,363.62L210.4,360.5L210.28,356.27L208.06,356.21L207.82,355.51L205.98,355.95L205.61,357.56L202.12,357.77L199.76,353.47L193.48,353.46L191.83,353.26L193.49,351.07L194.15,351.47L195.98,350.42L196.79,351.48L199.44,348.8L199.57,346.31L200.85,344.47L202.54,343.16L203.16,338.2L204.2,335.37L204.12,333.86L205.92,332.17L207.97,333.46L211.57,334.09L212.22,333.1L217.58,331.81Z" class="land" id="CD" title="Democratic Republic of Congo"/>
    <path d="M198.15,327.5L196.48,330.73L196.65,333.06L197.47,334.69L199.28,336.47L199.51,337.71L198.65,338.39L193.92,337.92L190.12,337.91L187.16,337.64L187.31,335.69L184.75,332.89L185.73,330.45L187.82,328.53L189.78,329.62L190.55,329.11L192.2,325.41L195.07,320.41L196.37,319.72L196.5,318.5L195.41,316.58L196.28,316.77L197.37,319.02L197.47,321.38L198.26,322.73L195.75,322.7L195.24,323.26L197.44,325.48Z" class="land" id="CM" title="Cameroon"/>
    <path d="M157.52,321.82L159.25,323.22L161.97,322.86L162.99,323.67L163.36,326.17L161.94,328.9L162.8,332.06L162.36,332.16L157.44,332.24L153.61,333.67L153.78,330.78L151.56,329.48L151.79,327.44L153.07,325.66L152.75,322.34L154.46,322.26L156.09,321.23Z" class="land" id="CI" title="Côte d'Ivoire"/>
    <path d="M382.7,302.62L381.85,305.17L380.05,306.25L378.47,305.6L378.45,303.96L380.3,302.63ZM420.69,251.02L419.47,249.8L417.58,252.32L415.88,252.45L416.01,254L413.68,252.99L411.91,255.25L408.76,257.54L404.84,259.14L403.51,260.39L403.26,258.46L404.72,256.17L402.59,255.26L401.25,256.96L399.53,257.79L398.22,259.64L396.04,259.72L396.48,262.07L398.27,262.42L399.26,264.66L401.77,262.93L405.36,263.93L405.2,265.09L402.24,265.93L398.81,269.72L400.71,271.33L403.03,275.86L402.36,277.35L403.96,279.16L402.25,279.97L404.08,281.46L403.42,284.84L402.45,285.01L399.43,290.86L397.54,293.02L393.63,295.99L393.5,296.48L389.23,297.33L388.75,297.39L387.84,297.99L387.71,298.05L384.74,298.77L381.35,300.46L381.22,302.06L380.33,300.71L380.85,299.54L377.06,299.48L375.86,299.27L374.28,297.63L374.75,296.83L371.84,295.64L370.09,296.99L366.51,296.91L365.75,297.67L364.58,297.93L364.93,300.22L363.84,299.36L362.05,299.58L361.48,298.4L360.08,298.19L360.36,296.16L359.44,295.96L359.25,294.01L357.16,294.47L357.42,291.59L359.03,290.16L359.03,286.58L356.87,284.52L356.46,285.17L355.4,284.84L353.97,282.45L352.78,283.32L351.24,282.75L348.5,284.35L347.45,285.75L345.45,286.17L345.4,285.75L341.4,285.41L340.15,287.14L339.63,285.44L338.64,285.93L335.35,285.8L332.86,284.95L330.88,282.96L329.88,283.04L326.9,280.49L324.9,280.85L320.71,278.29L319.83,275.52L321.44,275.56L320.63,273.26L320.89,271.27L319.63,270.56L318.69,268.57L315.7,267.82L314.9,265.81L312.39,264.91L313.07,264.4L312.78,261.27L310.96,261.03L310.63,258.93L311.33,257.44L314.41,256.01L316.14,256.41L316.81,255.05L319.32,254.81L323.35,251.92L324.47,249.37L323.06,244.4L327.45,242.99L329.13,238.32L332.21,239.33L333.89,238.12L334.07,234.87L337.11,232.81L338.06,232.58L338.38,234.37L342.9,236.92L343.98,238.98L343.99,243.88L349.37,244.69L352.64,246.38L354.64,250.53L356.23,250.35L364.95,251.2L368.81,253.07L371.69,253.1L374.73,251.67L379.9,251.23L381.75,250.39L384.72,247.9L383.69,246.14L384.65,244.24L387.92,245.11L389.72,243.42L391.97,243.16L393.67,240.85L397.05,239.65L399.76,239.96L399.76,238.42L397.42,236.03L395.2,236.99L391.73,236.14L393.91,230.61L396.21,231.54L398.89,229.89L398.76,228.94L400.45,225.19L401.77,223.63L400.51,221.44L401.68,220.21L407.3,218.99L411.25,220.62L412.53,222.68L413.72,226.74L415.8,231.38L418.76,232.11L421.22,234.99L421.61,236.87L424.62,236.65L428.49,235.05L428.86,236.8L427.73,237.99L427.14,240.97L425.34,244.33L423.49,243.75L421.76,244.66L422.11,248.65Z" class="land" id="CN" title="China"/>
    <path d="M734.81,470.54L734.81,470.54L734.81,470.54ZM729.73,469.75L732.48,470.88L730.3,471.53ZM723.5,465L724.89,466.06L722.77,466.51L722.03,464.82ZM731.81,462.33L731.76,469.53L726.37,468.75L728.98,464.79L728.4,463.52ZM720.5,451.57L720.32,454.08L718.91,453.65L719.89,450.27ZM720.32,449.93L720.32,449.93L720.32,449.93ZM723.38,439.18L723.38,439.18L723.38,439.18ZM721.93,438.13L721.23,440.67L720.23,438.82ZM721.86,435.32L720.74,435.1L721.35,431.25L722.34,431.51L722.51,434.23ZM734.59,387.46L734.27,390.01L731.94,391.72L732.36,396.43L731.39,396.71L729.11,401.47L729.24,403.78L728.03,406.51L729.55,410.71L729.44,412.63L728.25,415.22L728.38,416.98L727.12,418.08L726.9,421.09L727.32,423.49L726.4,424.11L725.42,428.41L725.77,431.9L725.01,434.37L726.81,438.26L725.73,441.77L725.47,445.92L724.29,447.86L724.1,450.52L722.24,452.86L723.06,456.35L724.3,455.95L724.5,458.83L725.45,460.23L729.24,460.29L732.17,461.39L730.63,460.91L727.62,462.7L727.23,465.97L724.95,465.49L726.47,462.68L723.25,464.22L721.39,462.28L722.35,460.39L721.62,458.18L719.3,456.18L720.78,454.04L720.76,449.95L720.15,447.36L721.13,445.28L718.22,444.25L719.36,442.19L722.29,441.11L724.01,438.25L722.84,437.52L723.77,432.56L723.33,430.6L722.35,431.25L721.49,429.5L722.92,424.7L722.08,420.93L722.94,419.64L724.86,414.68L726.35,409L725.93,403.72L726.61,402.2L726.86,399.38L728.3,392.44L728.07,387.95L728.99,384.68L728.87,381.19L728.35,378.21L730.11,376.5L731.15,379.48L732.13,380.43L731.59,382.54L732.65,384.28L733.26,387.46Z" class="land" id="CL" title="Chile"/>
    <path d="M186.63,237.35L186.63,238.08L186.73,238.68L188.42,239.23L185.52,242.13L184.56,240.97L181.78,241.86L179.92,240.46L182.93,237.16L184.87,236.66Z" class="land" id="CH" title="Switzerland"/>
    <path d="M355.52,365.84L355.52,365.84L355.52,365.84Z" class="land" id="CC" title="Cocos (Keeling) Islands"/>
    <path d="M660.9,131.97L657.74,128.22L660.47,126.26L662.26,129.07ZM710.71,127.02L715.22,128.08L716.78,132.62L710.78,133.04L708.22,128.89L708.17,126.56ZM697.07,143.9L700.55,143.41L700.73,140.15L698.38,137.95L700.11,129.19L704.67,126.51L707.1,127.16L709.28,133.11L708,136.55L712.81,135.11L714.16,133.24L718.92,134.82L721.98,139.61L725.99,140.86L728.07,145.51L730.77,145.36L734.26,149.57L735.57,153.74L733.51,155.08L732.95,157.69L736.46,160.78L739.74,161.53L740.75,163.89L744.69,165.53L745.99,167.35L741.92,174.6L739.48,174.36L738.24,170.43L735.97,169.14L732.53,170.77L735.23,174.72L738.3,176.81L739.45,179.51L739.77,182.84L738.32,185.18L736.94,183.97L733.65,183.57L736.35,186.91L736.4,188.7L730.93,186.48L730.04,185.05L726.73,183.79L722.5,177.75L720.43,176.64L716.15,178.56L714.09,178L713.5,175.42L714.99,173.05L717.89,174.1L722.27,172.63L720.58,169.81L724.86,164.36L722.72,159.18L719.65,155.38L716.77,156.94L717.96,153.56L715.37,151.71L711.79,146.43L711.16,150.36L707.69,149.25L705.68,150.66L697.59,148.94L697,147.47L694.53,148.33L692.7,146.77L691.7,143.57L694.27,144.26L694.59,142.72L690.77,141.01L690.42,138.19L691.9,130.98L694.88,126.55L699.93,125.96L696.99,132.29L698.14,139.3L700.1,141.85ZM671.13,125L672.76,126.49L675.81,125.41L676.93,126.94L675.39,129.53L677.68,138.91L673.72,142.16L669.98,136.91L667.79,135.88L665.88,132.86L670.19,132.93L670.58,130.64L668.32,128.55ZM684.34,123.49L689.79,125.54L686.38,133.05L684.01,132.74L682.66,137.69L680.43,137.7L679.58,126.74L680.72,124.46ZM632.95,123.83L637.25,122.99L641.25,128.5L634.45,133.51L632.09,136.53L631.24,140.92L626.23,143.23L624.69,139.87L621.3,137.01L625.1,126.24L623.36,122.15L629.9,120.84ZM683.62,117.17L683.61,119.67L681.39,120.03L677.77,116.64L679.5,113.36L681.91,112.86ZM666.82,109.54L664.72,111.53L662.71,108.19L666.13,107.38ZM675.58,105.86L676.14,113.18L675.39,116.51L670.68,117.32L669.75,114.3L666.21,113.48L668.36,109.72L666.99,107.35L670.38,104.64ZM655.09,109.2L660.53,111.67L659.79,115.94L657.29,117.93L654.05,116.9L646.91,121.66L644.99,121.57L643.17,116.72L640.7,117.62L637.08,115.33L639,109.06L640.99,106.1L643.67,105.99L646.57,108.03L649.75,113.21L653.55,113.53L653.83,112.04L651.26,106.27L654.75,103.6ZM682.16,102.11L685.22,104.73L687.95,104.08L689.99,109.22L693.95,113.49L698.08,113.57L702.21,111.09L705.65,111L710.47,113.97L710.77,118.28L709.28,120.47L706.32,121.23L693.52,121.1L686.68,118.92L685.78,114.49L686.25,110.88L684.49,106.79L680.27,107.52L677.63,103.89L679.57,100.81ZM641.05,98.2L639.75,104.66L633.67,107.87L632.61,110.78L628.75,109.38L629.32,106.07L634.2,98.71ZM679.86,94.34L684.09,94.82L683.66,97.21L678.89,97.12ZM650.9,91.46L652.23,92.82L651.4,96.76L648.01,98.37L645.67,96.71L645.62,93.23ZM652.14,86.2L652.96,89.25L645.69,88.56L651,85.16ZM678.47,87.37L681.02,89.16L680.63,92.49L676.95,94.21L674.5,88.36ZM664.5,79.47L671.88,86.86L672.74,93.75L670,93.43L669.05,90.61L665.85,88.92L664.32,85.03L660.42,82.38L660.71,79.39ZM686.82,58.71L689.23,65.28L694.97,67.87L696,75.79L699.17,77.21L699.58,80.58L696.24,83.74L692.81,90.62L689.28,91.02L685.29,88.74L680.6,79.74L680.23,75.89L677.37,70.57L679.61,67.59L678.61,64.11L680.28,60.35ZM730.15,32.15L741.46,35.35L745.65,40.57L744.29,46.65L739.65,50.9L737.89,56.78L728.88,67.57L726.47,74.71L718.99,78.36L717.06,82.65L720.58,85.48L717.81,92.33L713.66,92.92L713.54,96.81L711.09,99.99L713.13,101.55L713.13,104.99L708.48,108.23L707.55,105.48L699.87,107.19L691.3,105.65L691.44,102.84L696.52,99.63L694.16,95L696.24,93.42L695.21,90.77L696.65,84.98L701.47,82.96L699.97,76.33L697.4,73.8L697.62,68.48L702.61,69.51L709.72,66.04L703.24,63.84L699.55,66.07L692.56,62.74L690.57,58.21L692.45,53.46L689.52,48.95L705.71,38.56L710.04,33.39L729.22,30.56ZM746.36,241.81L748.76,241.21L747.76,242.62L745.61,241.82L746.82,239.42L747.86,239.5ZM741.13,240.35L744.32,240.29L742.93,241.65ZM720.05,244.41L722.28,243.25L723.05,241.63L728.15,238.76L731.12,235.19L736.55,232.43L739.15,232.5L740.27,234.38L737.54,236.86L739.4,236.78L738.21,238.56L739.72,240.99L743.7,242.71L744.72,242.02L746.02,243.77L741.23,245.82L740.21,245.64L739.1,247.48L737.4,248.31L736.7,246.14L739.9,243.72L739.03,242.69L737.12,243.81L734.72,243.95L733.44,242.49L733.4,238.61L730.62,237.53L729.14,239.67L728.59,241.92L726.22,244.4ZM745.02,232.79L741.6,231.88L740.51,230.26L742.97,230.97ZM618.52,228.15L621.84,229.13L623.46,231.79L624.71,232.4L625.49,235.02L623.37,234.25L619.78,231.82L616.45,228.24ZM757.29,225.39L754.9,229.91L756.69,230.2L756.45,231.34L758.21,232.27L760.19,231.76L761.02,235.31L762.71,237.28L761.91,239.75L759.77,239.19L760.36,237.75L755.81,236.93L750.21,237.22L749.74,236.37L754.79,226.2ZM708.4,221.57L706.26,220.89L707.62,220.1ZM607.96,217.09L609.81,217.55L609.21,219.9L607.78,219.76ZM711.87,209.84L711.87,209.84L711.87,209.84ZM710.7,186.45L710.37,189.74L709.3,188.91ZM705.95,184.16L703.98,187.29L702.27,186.18L703.28,184.37ZM700.3,173.94L703.23,174.66L705.85,176.76L706.5,179.54L709.23,180.68L707.79,181.99L703.06,179.19L700.85,182.64L699.19,183.37L698.76,181.13L695.91,181.07L697.72,179.03L698.28,171.87L699.68,171.44ZM718.18,158.89L719.19,159.35L719.24,162.93L715.61,164.29L715.03,162.08L716.12,159.37ZM676.08,151.77L678.29,153.42L679.47,156.71L676.02,157.73L671.97,155.1ZM720.05,244.41L719.14,244.69L715.97,248.12L711.42,248.56L711.68,250.32L707.34,251.87L705.1,253.26L703.74,252.48L705.68,248.28L704.88,243.46L700.99,240.38L700.38,239.13L693.61,235.1L691.53,236L687.54,235.82L684.68,234.2L683.3,234.46L680.49,233.09L653.77,230.62L627.05,233.08L623.77,230.66L622.36,228.65L620.05,228.48L619.61,227.31L617.53,226.58L616.28,223.44L616.76,221.22L613.94,219.95L612.45,218.41L612.27,216.12L613.74,212.7L613.05,211.15L609.49,207.99L605.71,201.06L602.51,196.94L600.37,199.38L598.41,199.1L595.33,195.82L591.82,194.97L591.82,151.72L595.34,152.47L600.11,155.89L601.73,155.74L603.15,152.74L606.98,152.92L612.13,148.95L615.09,151.38L618.63,148.4L621.02,153.01L623.22,149.82L625.46,153.23L626.59,150.83L630.58,151.67L636.13,155.06L643.25,157.11L641.86,161.5L647.08,162.18L651.7,160.69L654.51,162.66L656.38,165.61L655.05,157.37L659.2,155.72L663.02,160.41L664.41,159.97L668.12,162.14L674.19,161.46L674.58,158.92L676.42,158.21L678.8,159.75L678.15,162.85L680.3,164.32L679.54,161.92L683.41,157.73L682.21,152.81L678.77,150.72L678.08,142.33L680.41,138.47L684.77,142.4L684.71,144.84L687.45,148.75L685.15,151.37L688.88,153.71L689.57,156.02L692.3,153.84L694.26,156.3L693.96,161.77L695.76,164.71L697.17,163.04L698.72,157.27L700.41,154.89L699.16,150.64L704.75,151.5L707.25,154.64L707.34,157.12L704.88,158.24L707.36,163.32L706.98,165.28L704.71,167.65L701.15,169.62L698.98,167.74L696.99,167.92L698.13,170.37L695.71,173.5L694.4,173.53L690.96,170.78L692.46,173.54L696.22,174.23L694.14,178.82L690.2,179.71L687.9,181.79L688.79,184.2L685.9,184.74L682.9,190.28L681.48,194.52L681.36,200.32L684.13,200.86L686.12,207.22L689.33,206.46L692.51,207.78L695.19,210.57L700.03,213.21L704.83,213.67L705.67,218.11L705.44,220.88L706.6,223.01L710.13,226.51L712.73,223.14L710.46,215.19L713.9,213.38L716.3,210.39L716.44,206.61L715.32,203.59L712.69,201.14L715.02,195.98L713.93,193.06L713.55,186.69L714.9,185.78L720.09,187.4L722.14,186.27L725.13,189.27L726.41,191.58L728.62,191.94L729.85,193.44L729.77,198.66L733.86,202.87L737.66,199.54L738.96,195.16L739.8,195.1L742.34,200.49L744.83,204.16L745.92,207.22L745.57,209.4L748.64,213.3L750.44,213.67L753.52,215.62L752.08,216.35L755.34,218.28L756.63,220.08L756.83,223.5L754.35,225.63L751.38,226.13L748.35,229.32L743.25,229.18L735.94,229.45L734.24,232.03L731.23,233.57L726.71,239.42L723.39,241.07ZM643.04,134.1L646.46,131.53L649.33,133.32L654.19,134.37L656.2,129.24L658.59,130.13L660.65,132.83L663.48,145.37L669.25,149.6L669.32,151.36L666.81,150.65L665.48,152.2L667.54,155.16L664.42,156.32L659.25,154.41L658.25,152.89L656.74,155.28L649.25,157.74L645.74,157.99L644.64,154.23L639.19,152.97L637.98,149.2L642.9,147.98L646.68,148.48L647.7,147.21L644.52,145.79L637.11,146.15L636.67,143.02L634.63,139.81L635.59,134.48L637.18,132.55L642.81,128.94Z" class="land" id="CA" title="Canada"/>
    <path d="M212.42,320.85L213.94,323L213.73,324.98L214.91,325.27L217.3,327.87L219.2,329.23L221.21,332.2L217.58,331.81L212.22,333.1L211.57,334.09L207.97,333.46L205.92,332.17L204.12,333.86L204.2,335.37L200.45,335.26L199.51,337.71L199.28,336.47L197.47,334.69L196.65,333.06L196.48,330.73L198.15,327.5L200.67,327.45L203.9,326.51L205.24,324.59L207.55,324.37L211.71,320.7Z" class="land" id="CF" title="Central African Republic"/>
    <path d="M179.8,227.81L180.03,229.72L179.4,231.47L173.7,227.93L173.09,226.75L174.68,225.88L176.38,225.85L179.47,226.66Z" class="land" id="BE" title="Belgium"/>
    <path d="M217.06,377.08L218.82,380.65L221.78,382.69L222.45,384.85L225,386.15L222.77,387.19L220.71,388.94L220.11,390.45L218.33,391.53L217.69,393.37L216.07,393.82L213.21,392.64L210.07,396.06L208.32,396.05L208.42,394.03L206.85,391.59L206.85,385.74L208.77,385.74L208.77,378.15L213.27,377.56L213.82,378.43Z" class="land" id="BW" title="Botswana"/>
    <path d="M345.45,286.17L346.16,288.14L341.84,288.47L340.15,287.14L341.4,285.41L345.4,285.75Z" class="land" id="BT" title="Bhutan"/>
    <path d="M388.84,333.21L390.92,332.61L389.89,334.31Z" class="land" id="BN" title="Brunei"/>
    <path d="M749.48,316.57L749.48,316.57L749.48,316.57Z" class="land" id="BB" title="Barbados"/>
    <path d="M764.3,344.87L764.3,344.87L764.3,344.87ZM768.56,342.54L770.98,342.78L769.92,344.97L766.86,345.56L766.6,342.63ZM755.31,338.34L758.16,337.08L758.92,337.6L762.11,337.87L764.65,334.24L765.49,334.17L766.96,338.56L768.04,339.85L765.36,342.26L764.08,345.17L766.07,344.26L767.07,346L769.8,345.64L771.49,343.53L774.01,343.61L778.19,345.48L778.86,347L781.51,346.87L784.64,347.78L787.26,347.64L790.14,349.29L792.65,351.61L795.8,352.03L797.24,356.24L796.2,360.03L793.11,363.15L790.59,367.15L789.53,367.03L788.95,368.63L789.35,373.19L788.83,376.9L787.69,378.81L787.77,380.11L785.66,383.47L785.02,385.92L783.24,387.72L778.22,387.95L776.7,389.28L773.91,390.44L770.66,393.82L770.17,399.82L768.34,401.56L767.27,403.93L765.61,403.79L764.03,406.09L762.72,410.1L761.33,411.5L761.8,409.18L760.57,407.62L757.1,404.94L756.48,405.38L754.63,403.22L753.13,403.4L756.77,399L760.42,396.64L760.32,393.5L758.92,393.3L759.64,390.04L757.47,389.92L756.53,386.38L752.4,385.84L752.7,383.66L752.06,381.93L753.19,378.07L752.7,376.51L751.61,375.95L751.33,374.12L748.16,374L747.52,369.03L745.04,368.51L742.57,366.81L739.95,366.35L738.08,363.99L738.06,360.98L735.48,361.49L732.26,363.54L729.97,363.41L727.92,363.53L727.93,360.52L726.76,361.47L724.94,361.55L724.56,360.58L722.95,360.39L723.41,359.57L721.42,356.76L723.09,354.63L723.57,352.02L727.61,350.18L729.23,350.3L730.32,344.41L729.02,342.37L729.05,340.98L730.78,340.43L729.45,340.05L729.45,338.79L732.69,338.77L734.28,338.06L735.2,339.73L736.07,340.51L738.13,340.42L741.94,337.8L740.91,337.35L739.67,334.55L743.26,334.32L746.56,333.32L747.07,332.02L748.52,332.25L748.29,333.36L749.37,334.48L748.51,336.89L749.99,339.44L754.08,338.2Z" class="land" id="BR" title="Brazil"/>
    <path d="M752.06,381.93L750.26,380.13L745.1,380.87L744.1,382.76L743.37,386.23L740.81,385.89L740.04,387.33L739.59,386.22L736.71,385.4L734.59,387.46L733.26,387.46L732.65,384.28L731.59,382.54L732.13,380.43L731.15,379.48L730.11,376.5L731.05,374.75L730.28,372.66L731.32,369.85L730.95,368.82L731.7,366.48L729.97,363.41L732.26,363.54L735.48,361.49L738.06,360.98L738.08,363.99L739.95,366.35L742.57,366.81L745.04,368.51L747.52,369.03L748.16,374L751.33,374.12L751.61,375.95L752.7,376.51L753.19,378.07Z" class="land" id="BO" title="Bolivia"/>
    <path d="M739.35,276.04L739.35,276.04L739.35,276.04Z" class="land" id="BM" title="Bermuda"/>
    <path d="M692.61,310.96L691.95,310.95L692.09,307.07L693.77,305.73L694.15,306.45L693.73,309.46Z" class="land" id="BZ" title="Belize"/>
    <path d="M222.65,210.27L226.68,211.3L227.99,212.24L228.4,215.36L231.46,219.67L228.98,220.13L229.64,223.62L227.26,225.2L220.95,225.15L218.35,224.21L215.33,224.35L213.86,225.44L213.07,223.13L214.33,221.83L213.63,217.71L216.11,217.59L217.62,216.41L219.64,211.91Z" class="land" id="BY" title="Belarus"/>
    <path d="M743.02,306.94L743.02,306.94L743.02,306.94Z" class="land" id="BL" title="Saint Barthelemy"/>
    <path d="M714.18,292.75L714.18,292.75L714.18,292.75ZM715.18,290.19L715.18,290.19L715.18,290.19Z" class="land" id="BS" title="Bahamas"/>
    <path d="M266.09,290.24L266.09,290.24L266.09,290.24Z" class="land" id="BH" title="Bahrain"/>
    <path d="M204.97,244.77L205.9,247.92L205.33,248.38L203.86,250.96L202.38,250.07L202.22,249.96L198.64,245.06L198.74,243.93L204.3,244.21Z" class="land" id="BA" title="Bosnia and Herzegovina"/>
    <path d="M223.5,247.82L221.37,251.2L222.39,252.5L221,252.21L219.12,253.16L217.05,254.38L214.73,253.65L212.53,254.14L211.42,251.6L212.65,249.3L211.83,248.59L212.12,246.49L213.13,247.47L217.52,248.01L220.6,246.68Z" class="land" id="BG" title="Bulgaria"/>
    <path d="M347.27,298.5L346.79,300.97L345.57,297.4L344.12,297.21L342.6,298.84L340.81,299.04L340.46,298.26L339.84,293.77L338.71,293.22L339.28,289.19L341.95,290.11L341.93,291.48L346.26,291.77L345.92,293.84L344.54,294.97L345.43,296.41L346.64,294.92Z" class="land" id="BD" title="Bangladesh"/>
    <path d="M168.62,312.92L168.52,313.75L170.11,316.65L172.21,317.3L172.82,318.92L169.95,320.7L168.07,320.46L162.73,320.69L162.99,323.67L161.97,322.86L159.25,323.22L157.52,321.82L157.97,319.06L159.64,318.05L160.37,315.97L161.82,316.18L163.45,314.2L164.12,314.41L166.73,312.65Z" class="land" id="BF" title="Burkina Faso"/>
    <path d="M175.16,319.32L175.62,321.46L174.09,324.45L173.57,324.52L173.44,329.75L171.34,330.05L171.3,324.52L170.78,322.66L169.71,321.95L169.95,320.7L172.82,318.92L173.77,317.99Z" class="land" id="BJ" title="Benin"/>
    <path d="M227.3,346.74L227.76,348.44L225.69,350.73L225.08,350.71L224.33,347.36Z" class="land" id="BI" title="Burundi"/>
    <path d="M262.16,252.82L264.49,256.07L262.73,261.45L261.1,260.5L261.04,258.34L258.13,260.29L256.78,257.85L257.11,256.96L255.25,254.25L258.07,254.82L258.01,252.7L260.78,254.46ZM257.4,260.36L254.89,258.43L254.8,258.29L256.73,259.11Z" class="land" id="AZ" title="Azerbaijan"/>
    <path d="M201,234.24L201.37,235.97L199.33,239.23L196.26,240.49L194.7,240.2L191.71,239.03L188.42,239.23L186.73,238.68L186.63,238.08L186.63,237.35L190.06,237.64L192.74,236.94L192.99,235.52L194.93,233.75L196.62,234.24L197.16,233.11Z" class="land" id="AT" title="Austria"/>
    <path d="M448.76,428.65L451.23,429.62L455.05,429.06L455.07,431.88L454.45,434.82L453.34,434.12L452.31,436.03L450.7,435.86L449.2,433.2L448,429.15ZM434.36,416.2L434.36,416.2L434.36,416.2ZM432.65,369.06L432.65,369.06L432.65,369.06ZM420.86,364.25L422.64,364.37L421.51,365.34ZM445.16,365.39L446.28,370.15L447.66,369.92L449.24,371.34L449.51,374.28L450.86,376.76L450.68,378.06L451.55,379.7L453.36,380.32L455.95,382.19L457.78,386.66L459.83,386.94L459.98,388.8L462.03,390.37L464.47,394.14L464.38,396.8L465.27,399.08L464.05,406.21L463.13,408.5L461.86,409.56L458.73,416.43L458.22,420.52L454.99,421.26L452.27,423.31L450.49,423.9L448.03,422.19L445.86,423.7L440.22,421.74L438.59,419.83L438.73,418.42L437.15,416.09L435.5,415.9L436.13,414.51L435.31,412.5L434.54,414.79L434.16,412.48L435.01,411.12L434.06,410.23L430.59,414.31L427.86,408.75L421.88,406.34L417.63,406.81L414.48,408.09L411.77,408.17L408.3,410.08L407.38,411.72L404.48,412.09L403.04,411.7L400.04,412.05L396.72,414.42L393.59,414.42L390.67,412.7L391.97,410.23L392,406.8L390.99,404.79L390.57,401.72L389.04,398.73L387.91,395.42L387.83,393.41L389.13,393.89L387.59,390.87L388.64,385.61L389.45,386.45L390.38,385.19L393.95,382.94L395.31,383.08L402.02,380.91L404.65,377.44L404.5,376.11L406.07,374.34L407.14,376.46L407.07,374.45L409.18,373.69L408.8,372.97L410.34,370.88L413.68,368.94L416.18,370.95L418.62,371.32L418.46,370.24L419.99,367.38L421.69,365.86L424.25,365.96L424.86,364.51L429.76,365.92L430.86,365.3L431.43,366.32L432.32,365.4L433.1,366.17L431.13,368.07L431.05,369.76L430.12,370.97L432.79,373.25L435.61,374.91L437.09,375.27L439.08,376.9L440.62,376.32L442.15,371.56L441.86,369.05L443.2,363.4L443.76,362.93Z" class="land" id="AU" title="Australia"/>
    <path d="M302.03,451.46L302.03,451.46L302.03,451.46Z" class="land" id="TF" title="French Southern and Antarctic Lands"/>
    <path d="M534.32,370.15L534.32,370.15L534.32,370.15Z" class="land" id="AS" title="American Samoa"/>
    <path d="M258.13,260.29L257.4,260.36L256.73,259.11L254.8,258.29L252.91,257.37L252.23,254.73L255.25,254.25L257.11,256.96L256.78,257.85Z" class="land" id="AM" title="Armenia"/>
    <path d="M743.37,386.23L746.5,389.43L748.71,390.14L753.17,392.93L751.17,396.66L754.09,397.4L756.79,397.28L758.65,395.36L758.92,393.3L760.32,393.5L760.42,396.64L756.77,399L753.13,403.4L751.98,408.57L751.31,411.32L751.82,413.71L753.72,414.9L753.79,417.17L754.94,418.87L753.25,421.88L748.83,423.74L744.5,423.94L743.87,428.92L741.2,429.58L738.57,428.89L738.72,431.7L739.95,432.91L741.55,432.84L738.28,436.08L737.6,439.8L735.08,440.49L733.87,443.5L735.39,445.37L737.4,446.33L737.26,448.04L733.64,451.86L733.45,453.69L731.21,455.27L730.64,457L732.17,461.39L729.24,460.29L725.45,460.23L724.5,458.83L724.3,455.95L723.06,456.35L722.24,452.86L724.1,450.52L724.29,447.86L725.47,445.92L725.73,441.77L726.81,438.26L725.01,434.37L725.77,431.9L725.42,428.41L726.4,424.11L727.32,423.49L726.9,421.09L727.12,418.08L728.38,416.98L728.25,415.22L729.44,412.63L729.55,410.71L728.03,406.51L729.24,403.78L729.11,401.47L731.39,396.71L732.36,396.43L731.94,391.72L734.27,390.01L734.59,387.46L736.71,385.4L739.59,386.22L740.04,387.33L740.81,385.89ZM731.76,469.53L731.81,462.33L734.39,466.85L738.16,469.61L735.91,470.13Z" class="land" id="AR" title="Argentina"/>
    <path d="M277.28,292.17L276.13,292.41L274.95,296.99L269.86,296.5L267.95,293.65L268.61,294.29L272.45,294.09L276.68,289.85Z" class="land" id="AE" title="United Arab Emirates"/>
    <path d="M171.5,251.1L170.97,250.86L171.5,251.1Z" class="land" id="AD" title="Andorra"/>
    <path d="M206.87,194.78L206.87,194.78L206.87,194.78Z" class="land" id="AX" title="Aland Islands"/>
    <path d="M207.01,250.99L207.98,252.75L208.75,255.39L206.89,258.28L205.73,256.83L205.62,252.76Z" class="land" id="AL" title="Albania"/>
    <path d="M742.7,306.24L742.7,306.24L742.7,306.24Z" class="land" id="AI" title="Anguilla"/>
    <path d="M191.83,353.26L191.45,351.79L193.49,351.07ZM214.56,363.26L214.32,367.47L210.72,367.47L210.72,373.37L211.05,374.66L213.43,376.77L209.63,377.51L204.62,377.03L203.79,376.28L195.16,376.26L193.54,375.41L190.92,375.98L191.35,372.72L192.48,368.33L194.16,366.51L194.99,363.62L193.35,359.67L194.08,358.35L192,353.91L193.48,353.46L199.76,353.47L202.12,357.77L205.61,357.56L205.98,355.95L207.82,355.51L208.06,356.21L210.28,356.27L210.4,360.5L211.84,363.62Z" class="land" id="AO" title="Angola"/>
    <path d="M313.07,264.4L312.39,264.91L308.68,265.38L305.9,267.27L306.74,269.31L305.47,270.85L305.64,271.98L303.35,272.33L304.16,273.56L302.64,274.37L302.21,276.85L300.15,277.15L296.64,279.17L296.21,281.59L292.19,282.57L289.05,282.54L285.89,281.54L287.71,279.35L287.47,278.11L285.91,277.88L285.35,274.09L286.04,273.24L285.2,271.87L286.7,268.28L289.31,269.19L290.28,267.8L292.99,266.55L293.58,264.64L295.41,263.58L296.88,264.12L299.27,264.55L299.87,265.08L304.09,263.35L305.31,261.4L306.61,262.69L307.09,265.7L310.34,263.82Z" class="land" id="AF" title="Afghanistan"/>
    <path d="M745.18,308.65L745.18,308.65L745.18,308.65Z" class="land" id="AG" title="Antigua and Barbuda"/>
    <path d="M729.35,317.82L729.35,317.82L729.35,317.82Z" class="land" id="AW" title="Aruba"/>
  </g>
</svg>